<svg width="20" height="21" viewBox="0 0 20 21" fill="black" xmlns="http://www.w3.org/2000/svg">
<path d="M15 7.16666C15 5.84058 14.4732 4.56881 13.5355 3.63113C12.5979 2.69345 11.3261 2.16666 10 2.16666C8.67392 2.16666 7.40215 2.69345 6.46447 3.63113C5.52678 4.56881 5 5.84058 5 7.16666C5 13 2.5 14.6667 2.5 14.6667H17.5C17.5 14.6667 15 13 15 7.16666Z" stroke="white" strokeWidth="2" strokeLinecap="round" strokeLinejoin="round"/>
<path d="M11.4419 18C11.2954 18.2526 11.0851 18.4622 10.8321 18.6079C10.5791 18.7537 10.2922 18.8304 10.0003 18.8304C9.70828 18.8304 9.42142 18.7537 9.16841 18.6079C8.91539 18.4622 8.7051 18.2526 8.55859 18" stroke="white" strokeWidth="2" strokeLinecap="round" strokeLinejoin="round"/>
</svg>
