<svg width="21" height="21" viewBox="0 0 21 21" fill="none" xmlns="http://www.w3.org/2000/svg">
<g opacity="0.5">
<path d="M16.4525 5.18081C15.8737 4.54942 14.8286 4.51051 14.1318 5.20724L7.3106 12.0285C7.1342 12.2049 7.1342 12.4296 7.3106 12.606C7.48701 12.7824 7.71172 12.7824 7.88812 12.606L13.5304 6.96374C13.8593 6.63487 14.3925 6.63487 14.7213 6.96374C15.0502 7.29261 15.0502 7.82582 14.7213 8.15469L9.07907 13.7969C8.24492 14.6311 6.9538 14.6311 6.11965 13.7969C5.28551 12.9628 5.28551 11.6717 6.11965 10.8375L12.9409 4.01629C14.261 2.69623 16.4061 2.65328 17.6816 4.02918C18.9888 5.34999 19.0273 7.48474 17.6568 8.75615L9.66856 16.7444C7.82386 18.5891 4.9327 18.5891 3.08799 16.7444C1.24329 14.8997 1.24329 12.0085 3.08799 10.1638L9.90923 3.34259C10.2381 3.01372 10.7713 3.01372 11.1002 3.34259C11.4291 3.67146 11.4291 4.20467 11.1002 4.53354L4.27894 11.3548C3.09198 12.5417 3.09198 14.3665 4.27894 15.5534C5.4659 16.7404 7.29065 16.7404 8.47761 15.5534L16.4778 7.55323C16.4865 7.54461 16.4953 7.53617 16.5043 7.52793C17.1357 6.94915 17.1746 5.90397 16.4778 5.20724C16.4692 5.19862 16.4608 5.18981 16.4525 5.18081Z" fill="#1C1D22"/>
</g>
</svg>
