<svg width="26" height="25" viewBox="0 0 26 25" fill="none" xmlns="http://www.w3.org/2000/svg">
<path d="M10.099 2.05859C10.6675 2.05859 11.1283 2.51941 11.1283 3.08786V4.11713H15.2454V3.08786C15.2454 2.51941 15.7062 2.05859 16.2746 2.05859C16.8431 2.05859 17.3039 2.51941 17.3039 3.08786V4.11713H20.3917C21.5286 4.11713 22.4502 5.03877 22.4502 6.17566V19.5561C22.4502 20.693 21.5286 21.6147 20.3917 21.6147H5.98197C4.84507 21.6147 3.92343 20.693 3.92343 19.5561V6.17566C3.92343 5.03877 4.84507 4.11713 5.98197 4.11713H9.06977V3.08786C9.06977 2.51941 9.53059 2.05859 10.099 2.05859ZM9.06977 6.17566H5.98197V9.26347H20.3917V6.17566H17.3039V7.20493C17.3039 7.77338 16.8431 8.2342 16.2746 8.2342C15.7062 8.2342 15.2454 7.77338 15.2454 7.20493V6.17566H11.1283V7.20493C11.1283 7.77338 10.6675 8.2342 10.099 8.2342C9.53059 8.2342 9.06977 7.77338 9.06977 7.20493V6.17566ZM20.3917 11.322H5.98197V19.5561H20.3917V11.322Z" fill="#1C1D22"/>
</svg>
