<svg width="21" height="21" viewBox="0 0 21 21" fill="none" xmlns="http://www.w3.org/2000/svg">
<path d="M16.6509 2.79297C17.5811 2.79297 18.3352 3.54704 18.3352 4.47723V7.84574C18.3352 8.77593 17.5811 9.52999 16.6509 9.52999L4.86114 9.52999C3.93095 9.52999 3.17688 8.77593 3.17688 7.84574L3.17688 4.47722C3.17688 3.54704 3.93095 2.79297 4.86114 2.79297L16.6509 2.79297ZM16.6509 7.84574V4.47723L4.86114 4.47722L4.86114 7.84574L16.6509 7.84574Z" fill="#1C1D22"/>
<path d="M16.6509 11.2142C17.5811 11.2142 18.3352 11.9683 18.3352 12.8985V16.267C18.3352 17.1972 17.5811 17.9513 16.6509 17.9513H4.86114C3.93095 17.9513 3.17688 17.1972 3.17688 16.267L3.17688 12.8985C3.17688 11.9683 3.93095 11.2142 4.86114 11.2142L16.6509 11.2142ZM16.6509 16.267V12.8985L4.86114 12.8985L4.86114 16.267H16.6509Z" fill="#1C1D22"/>
</svg>
