<svg width="952" height="784" viewBox="0 0 952 784" fill="none" xmlns="http://www.w3.org/2000/svg">
<g clip-path="url(#clip0_22_235)">
<path d="M741.418 39.9903H646.218V71.9825H741.418V39.9903Z" fill="#E6E6E6"/>
<path d="M720.093 71.9825H624.893V103.975H720.093V71.9825Z" fill="#F0F0F0"/>
<path d="M739.895 553.961H644.695V585.953H739.895V553.961Z" fill="#E6E6E6"/>
<path d="M718.57 585.953H623.37V617.945H718.57V585.953Z" fill="#F0F0F0"/>
<path d="M438.872 22.6612H343.672V54.6534H438.872V22.6612Z" fill="#F0F0F0"/>
<path d="M888.597 314.781H793.397V346.773H888.597V314.781Z" fill="#F0F0F0"/>
<path d="M174.406 202.617H79.2063V234.61H174.406V202.617Z" fill="#F0F0F0"/>
<path d="M426.115 589H330.915V620.992H426.115V589Z" fill="#F0F0F0"/>
<path d="M845.186 523.682H501.133C495.04 523.682 489.899 518.731 489.899 512.447V11.2354C489.899 5.14161 494.85 0 501.133 0H845.186C851.278 0 856.419 4.95118 856.419 11.2354V512.637C856.419 518.731 851.469 523.682 845.186 523.682ZM501.133 0.57129C495.23 0.57129 490.47 5.33204 490.47 11.2354V512.637C490.47 518.541 495.23 523.301 501.133 523.301H845.186C851.088 523.301 855.848 518.541 855.848 512.637V11.2354C855.848 5.33204 851.088 0.57129 845.186 0.57129H501.133Z" fill="#E0E0E0"/>
<path d="M448.392 523.682H104.149C98.0561 523.682 92.9153 518.731 92.9153 512.447V11.2354C92.9153 5.14161 97.8657 0 104.149 0H448.202C454.294 0 459.435 4.95118 459.435 11.2354V512.637C459.626 518.731 454.485 523.682 448.392 523.682ZM104.149 0.57129C98.2465 0.57129 93.4865 5.33204 93.4865 11.2354V512.637C93.4865 518.541 98.2465 523.301 104.149 523.301H448.202C454.104 523.301 458.864 518.541 458.864 512.637V11.2354C458.864 5.33204 454.104 0.57129 448.202 0.57129H104.149Z" fill="#E0E0E0"/>
<path d="M952 640.035H0V640.606H952V640.035Z" fill="#E0E0E0"/>
<path d="M129.091 667.076H98.4368V667.647H129.091V667.076Z" fill="#E0E0E0"/>
<path d="M426.306 661.934H324.442V662.506H426.306V661.934Z" fill="#E0E0E0"/>
<path d="M199.729 684.786H130.805V685.357H199.729V684.786Z" fill="#E0E0E0"/>
<path d="M802.726 661.744H720.474V662.315H802.726V661.744Z" fill="#E0E0E0"/>
<path d="M831.667 661.744H819.672V662.315H831.667V661.744Z" fill="#E0E0E0"/>
<path d="M704.671 673.551H602.045V674.122H704.671V673.551Z" fill="#E0E0E0"/>
<path d="M873.746 772.384C873.746 778.858 695.722 784 476 784C256.278 784 78.2544 778.858 78.2544 772.384C78.2544 765.909 256.278 760.768 476 760.768C695.722 760.768 873.746 765.909 873.746 772.384Z" fill="#F5F5F5"/>
<path d="M552.541 722.301C552.541 721.539 550.066 647.843 538.07 636.226C526.456 624.991 513.128 635.845 512.557 636.226L511.414 634.703C511.605 634.512 526.646 622.325 539.403 634.703C551.969 646.89 554.445 718.873 554.445 721.92L552.541 722.301Z" fill="#010033"/>
<path d="M553.493 736.773C553.493 735.821 545.306 648.414 577.293 611.661L578.626 612.803C547.21 648.795 555.206 735.631 555.397 736.393L553.493 736.773Z" fill="#010033"/>
<path d="M552.35 727.442L550.446 727.252C550.446 726.3 556.73 627.847 533.31 606.138L534.643 604.805C558.633 627.086 552.731 723.443 552.35 727.442Z" fill="#010033"/>
<path d="M555.397 727.442H553.493C553.493 724.776 554.255 660.982 572.343 650.509C576.341 648.223 580.339 647.843 584.147 649.366C595.19 653.936 600.522 673.36 600.712 674.312L598.999 674.884C598.999 674.693 593.667 655.46 583.386 651.27C580.149 649.937 576.722 650.318 573.295 652.222C556.159 661.934 555.397 726.681 555.397 727.442Z" fill="#010033"/>
<path d="M548.352 727.442L546.448 727.252C546.448 726.681 549.114 676.788 535.786 659.268C532.549 655.079 528.931 652.984 525.314 653.175C516.555 653.746 509.13 666.695 508.939 666.886L507.226 665.933C507.606 665.362 515.222 652.032 524.933 651.27C529.312 650.889 533.501 653.175 537.118 658.126C551.208 676.407 548.542 725.348 548.352 727.442Z" fill="#010033"/>
<path d="M551.398 734.298C551.018 729.537 542.64 615.47 557.491 595.284L559.014 596.427C544.544 616.041 553.302 732.965 553.302 734.107L551.398 734.298Z" fill="#010033"/>
<path d="M591.002 655.65C591.002 655.65 581.482 659.078 584.718 666.695C593.858 688.023 615.373 690.118 615.373 690.118C615.373 690.118 625.464 674.122 617.277 661.554C605.662 644.415 591.192 650.128 591.002 655.65Z" fill="#00ACFF"/>
<path d="M549.494 646.129C549.494 646.129 559.014 645.748 559.586 653.936C560.157 662.125 539.022 684.786 539.022 684.786C539.022 684.786 523.981 679.264 527.218 658.888C530.454 638.512 547.21 641.178 549.494 646.129Z" fill="#00ACFF"/>
<path d="M554.064 598.521C554.064 598.521 550.066 597.95 548.542 594.522C544.163 583.858 559.395 572.242 579.958 578.336C579.958 578.336 580.53 596.427 569.486 603.472C558.443 610.518 554.064 598.521 554.064 598.521Z" fill="#00ACFF"/>
<path d="M518.84 654.508C518.84 654.508 522.077 649.937 517.126 649.556C512.176 649.176 490.47 658.888 496.182 680.977C496.182 680.977 523.981 671.837 524.933 662.696C526.075 653.365 518.84 654.508 518.84 654.508Z" fill="#00ACFF"/>
<path d="M578.245 606.329C578.245 606.329 579.578 602.139 584.147 600.426C588.717 598.712 606.424 599.854 606.615 622.706C606.615 622.706 579.768 627.086 576.341 618.516C573.104 609.947 578.245 606.329 578.245 606.329Z" fill="#00ACFF"/>
<path d="M563.584 625.372C563.584 625.372 565.488 622.325 568.915 623.848C572.342 625.562 582.624 636.036 572.914 648.604C572.914 648.604 554.826 637.75 556.349 630.133C557.682 623.277 563.584 625.372 563.584 625.372Z" fill="#00ACFF"/>
<path d="M519.411 630.894C519.411 630.894 522.077 627.467 518.269 627.086C514.461 626.705 497.325 631.275 501.323 648.414C501.323 648.414 522.267 646.89 523.029 639.654C523.79 632.608 519.411 630.894 519.411 630.894Z" fill="#00ACFF"/>
<path d="M579.006 773.145H527.979L522.648 720.396H584.528L579.006 773.145Z" fill="#010033"/>
<path d="M593.096 713.16H513.89V727.633H593.096V713.16Z" fill="#010033"/>
<path opacity="0.3" d="M537.119 677.169C535.595 666.124 541.117 653.746 549.495 646.129" stroke="black" stroke-width="0.5" stroke-miterlimit="10" stroke-linecap="round" stroke-linejoin="round"/>
<path opacity="0.3" d="M563.584 626.134C567.963 630.513 570.819 636.036 572.152 641.939" stroke="black" stroke-width="0.5" stroke-miterlimit="10" stroke-linecap="round" stroke-linejoin="round"/>
<path opacity="0.3" d="M591.002 655.65C599.57 659.459 607.757 667.647 611.755 676.026" stroke="black" stroke-width="0.5" stroke-miterlimit="10" stroke-linecap="round" stroke-linejoin="round"/>
<path opacity="0.3" d="M578.245 606.329C582.624 604.996 586.813 606.329 591.002 608.043C595.381 609.757 599.189 612.803 601.664 616.612" stroke="black" stroke-width="0.5" stroke-miterlimit="10" stroke-linecap="round" stroke-linejoin="round"/>
<path d="M540.355 610.328C540.355 610.328 546.638 611.09 547.019 607.281C547.4 603.472 526.075 588.428 508.749 600.806C508.749 600.806 514.08 618.136 526.837 621.182C539.784 624.229 540.355 610.328 540.355 610.328Z" fill="#00ACFF"/>
<path opacity="0.3" d="M540.165 610.518C533.501 601.568 517.126 598.712 511.605 600.616" stroke="black" stroke-width="0.5" stroke-miterlimit="10" stroke-linecap="round" stroke-linejoin="round"/>
<path opacity="0.3" d="M519.602 631.275C514.27 633.37 508.368 636.798 505.322 641.749" stroke="black" stroke-width="0.5" stroke-miterlimit="10" stroke-linecap="round" stroke-linejoin="round"/>
<path opacity="0.3" d="M499.229 672.598C503.418 664.41 510.653 657.935 519.03 654.317" stroke="black" stroke-width="0.5" stroke-miterlimit="10" stroke-linecap="round" stroke-linejoin="round"/>
<path opacity="0.3" d="M555.016 597.95C558.443 590.714 564.917 585.001 572.533 582.525" stroke="black" stroke-width="0.5" stroke-miterlimit="10" stroke-linecap="round" stroke-linejoin="round"/>
<path opacity="0.3" d="M523.219 727.633L524.362 737.154H582.814L583.766 727.633H523.219Z" fill="black"/>
<path d="M402.506 776.002H275.699C272.463 776.002 269.987 773.336 269.987 770.289V691.641C269.987 688.404 272.653 685.929 275.699 685.929H402.506C405.742 685.929 408.218 688.595 408.218 691.641V770.289C408.218 773.526 405.742 776.002 402.506 776.002Z" fill="#00ACFF"/>
<path opacity="0.5" d="M402.506 776.002H275.699C272.463 776.002 269.987 773.336 269.987 770.289V691.641C269.987 688.404 272.653 685.929 275.699 685.929H402.506C405.742 685.929 408.218 688.595 408.218 691.641V770.289C408.218 773.526 405.742 776.002 402.506 776.002Z" fill="white"/>
<path d="M380.8 700.211H299.118V705.352H380.8V700.211Z" fill="#00ACFF"/>
<path d="M292.264 702.686C292.264 704.591 290.741 706.305 288.646 706.305C286.742 706.305 285.029 704.781 285.029 702.686C285.029 700.782 286.552 699.068 288.646 699.068C290.741 699.259 292.264 700.782 292.264 702.686Z" fill="#00ACFF"/>
<path d="M334.343 717.54H289.027V762.862H334.343V717.54Z" fill="#00ACFF"/>
<path opacity="0.4" d="M334.343 717.54H289.027V762.862H334.343V717.54Z" fill="white"/>
<path d="M331.867 720.016H291.693V760.196H331.867V720.016Z" fill="#00ACFF"/>
<path opacity="0.7" d="M331.867 720.016H291.693V760.196H331.867V720.016Z" fill="white"/>
<path d="M291.693 760.196L305.402 742.105L314.35 748.199L325.203 736.202L331.867 742.296V760.196H291.693Z" fill="#00ACFF"/>
<path d="M311.685 734.679C314.419 734.679 316.635 732.462 316.635 729.727C316.635 726.993 314.419 724.776 311.685 724.776C308.951 724.776 306.735 726.993 306.735 729.727C306.735 732.462 308.951 734.679 311.685 734.679Z" fill="#00ACFF"/>
<path d="M396.413 734.869H344.053V740.011H396.413V734.869Z" fill="#010033"/>
<path d="M366.901 748.961H344.053V754.102H366.901V748.961Z" fill="#010033"/>
<path d="M396.413 720.777H344.053V725.919H396.413V720.777Z" fill="#010033"/>
<path d="M461.339 776.002H308.448C305.211 776.002 302.736 773.336 302.736 770.289V674.693C302.736 671.456 305.402 668.98 308.448 668.98H461.339C464.576 668.98 467.051 671.646 467.051 674.693V770.289C467.051 773.526 464.576 776.002 461.339 776.002Z" fill="#00ACFF"/>
<path opacity="0.7" d="M461.339 776.002H308.448C305.211 776.002 302.736 773.336 302.736 770.289V674.693C302.736 671.456 305.402 668.98 308.448 668.98H461.339C464.576 668.98 467.051 671.646 467.051 674.693V770.289C467.051 773.526 464.576 776.002 461.339 776.002Z" fill="white"/>
<path d="M434.493 685.929H337.389V692.022H434.493V685.929Z" fill="#00ACFF"/>
<path d="M325.013 693.165C327.326 693.165 329.202 691.289 329.202 688.975C329.202 686.662 327.326 684.786 325.013 684.786C322.699 684.786 320.824 686.662 320.824 688.975C320.824 691.289 322.699 693.165 325.013 693.165Z" fill="#00ACFF"/>
<path d="M379.277 706.495H325.394V760.387H379.277V706.495Z" fill="#00ACFF"/>
<path opacity="0.4" d="M379.277 706.495H325.394V760.387H379.277V706.495Z" fill="white"/>
<path d="M376.23 709.542H328.63V757.149H376.23V709.542Z" fill="#00ACFF"/>
<path opacity="0.7" d="M376.23 709.542H328.63V757.149H376.23V709.542Z" fill="white"/>
<path d="M328.63 757.149L344.814 735.631L355.477 743.058L368.424 728.585L376.23 736.012V757.149H328.63Z" fill="#00ACFF"/>
<path d="M358.333 720.968C358.333 724.205 355.667 726.871 352.43 726.871C349.194 726.871 346.528 724.205 346.528 720.968C346.528 717.73 349.194 715.064 352.43 715.064C355.667 715.064 358.333 717.73 358.333 720.968Z" fill="#00ACFF"/>
<path d="M452.962 727.252H390.891V733.346H452.962V727.252Z" fill="#010033"/>
<path d="M417.928 744.01H390.891V750.103H417.928V744.01Z" fill="#010033"/>
<path d="M452.962 710.494H390.891V716.588H452.962V710.494Z" fill="#010033"/>
<path d="M767.312 564.244H191.352C184.307 564.244 178.595 558.531 178.595 551.485V112.735C178.595 105.689 184.307 99.9757 191.352 99.9757H767.312C774.357 99.9757 780.069 105.689 780.069 112.735V551.485C780.259 558.531 774.547 564.244 767.312 564.244Z" fill="#00ACFF"/>
<path opacity="0.6" d="M767.312 564.244H191.352C184.307 564.244 178.595 558.531 178.595 551.485V112.735C178.595 105.689 184.307 99.9757 191.352 99.9757H767.312C774.357 99.9757 780.069 105.689 780.069 112.735V551.485C780.259 558.531 774.547 564.244 767.312 564.244Z" fill="white"/>
<path d="M723.71 255.938H599.95C596.713 255.938 594.238 253.272 594.238 250.225V198.428C594.238 195.191 596.904 192.715 599.95 192.715H723.71C726.947 192.715 729.422 195.381 729.422 198.428V250.225C729.422 253.272 726.947 255.938 723.71 255.938Z" fill="white"/>
<path d="M702.576 206.616H622.798V211.758H702.576V206.616Z" fill="#00ACFF"/>
<path d="M712.477 222.613H609.089V227.754H712.477V222.613Z" fill="#010033"/>
<path d="M660.117 236.133H609.089V241.275H660.117V236.133Z" fill="#010033"/>
<path d="M616.134 209.092C616.134 210.996 614.611 212.52 612.707 212.52C610.803 212.52 609.28 210.996 609.28 209.092C609.28 207.188 610.803 205.664 612.707 205.664C614.611 205.664 616.134 207.188 616.134 209.092Z" fill="#00ACFF"/>
<path d="M780.259 127.017H178.405V107.974C178.405 102.832 182.594 98.6427 187.734 98.6427H772.834C776.832 98.6427 780.259 101.88 780.259 106.069V127.017Z" fill="#00ACFF"/>
<path opacity="0.3" d="M765.789 112.735C765.789 115.972 763.123 118.828 759.696 118.828C756.459 118.828 753.603 116.162 753.603 112.735C753.603 109.497 756.269 106.641 759.696 106.641C763.123 106.831 765.789 109.497 765.789 112.735Z" fill="white"/>
<path opacity="0.3" d="M748.653 112.735C748.653 115.972 745.987 118.828 742.56 118.828C739.323 118.828 736.467 116.162 736.467 112.735C736.467 109.497 739.133 106.641 742.56 106.641C745.987 106.831 748.653 109.497 748.653 112.735Z" fill="white"/>
<path opacity="0.3" d="M731.707 112.735C731.707 115.972 729.042 118.828 725.614 118.828C722.378 118.828 719.521 116.162 719.521 112.735C719.521 109.497 722.187 106.641 725.614 106.641C728.851 106.831 731.707 109.497 731.707 112.735Z" fill="white"/>
<path d="M272.462 86.0743C288.266 86.0743 303.878 86.0743 319.682 86.0743" stroke="#00ACFF" stroke-miterlimit="10" stroke-linecap="round" stroke-linejoin="round"/>
<path d="M332.629 86.0743C335.866 86.0743 339.103 86.0743 342.53 86.0743" stroke="#00ACFF" stroke-miterlimit="10" stroke-linecap="round" stroke-linejoin="round"/>
<path d="M375.278 162.437H207.155V545.772H375.278V162.437Z" stroke="#00ACFF" stroke-miterlimit="10"/>
<path d="M559.395 162.437H391.272V545.772H559.395V162.437Z" stroke="#00ACFF" stroke-miterlimit="10"/>
<path d="M743.702 162.437H575.579V545.772H743.702V162.437Z" stroke="#00ACFF" stroke-miterlimit="10"/>
<path d="M352.05 251.748H228.29C225.053 251.748 222.578 249.082 222.578 246.035V194.239C222.578 191.001 225.243 188.526 228.29 188.526H352.05C355.286 188.526 357.762 191.192 357.762 194.239V246.035C357.762 249.273 355.286 251.748 352.05 251.748Z" fill="white"/>
<path d="M330.915 202.427H251.138V207.569H330.915V202.427Z" fill="#00ACFF"/>
<path d="M340.816 218.614H237.429V223.755H340.816V218.614Z" fill="#010033"/>
<path d="M288.456 232.134H237.429V237.276H288.456V232.134Z" fill="#010033"/>
<path d="M244.474 205.093C244.474 206.997 242.95 208.521 241.046 208.521C239.142 208.521 237.619 206.997 237.619 205.093C237.619 203.189 239.142 201.665 241.046 201.665C242.76 201.475 244.474 203.189 244.474 205.093Z" fill="#00ACFF"/>
<path d="M352.05 490.547H228.29C225.053 490.547 222.578 487.881 222.578 484.835V433.038C222.578 429.8 225.243 427.325 228.29 427.325H352.05C355.286 427.325 357.762 429.991 357.762 433.038V484.835C357.762 487.881 355.286 490.547 352.05 490.547Z" fill="white"/>
<path d="M330.915 441.226H251.138V446.368H330.915V441.226Z" fill="#00ACFF"/>
<path d="M340.816 457.222H237.429V462.364H340.816V457.222Z" fill="#010033"/>
<path d="M288.456 470.743H237.429V475.884H288.456V470.743Z" fill="#010033"/>
<path d="M244.474 443.702C244.474 445.606 242.95 447.129 241.046 447.129C239.142 447.129 237.619 445.606 237.619 443.702C237.619 441.797 239.142 440.274 241.046 440.274C242.76 440.274 244.474 441.797 244.474 443.702Z" fill="#00ACFF"/>
<path d="M537.309 388.477H413.549C410.312 388.477 407.837 385.811 407.837 382.764V306.211C407.837 302.974 410.502 300.498 413.549 300.498H537.309C540.546 300.498 543.021 303.164 543.021 306.211V382.764C543.021 386.001 540.355 388.477 537.309 388.477Z" fill="white"/>
<path d="M515.984 314.4H436.206V319.541H515.984V314.4Z" fill="#00ACFF"/>
<path d="M429.733 316.875C429.733 318.78 428.209 320.303 426.305 320.303C424.401 320.303 422.878 318.78 422.878 316.875C422.878 314.971 424.401 313.448 426.305 313.448C428.019 313.448 429.733 314.971 429.733 316.875Z" fill="#00ACFF"/>
<path d="M537.309 285.074H413.549C410.312 285.074 407.837 282.408 407.837 279.361V202.808C407.837 199.571 410.502 197.095 413.549 197.095H537.309C540.546 197.095 543.021 199.761 543.021 202.808V279.361C543.021 282.408 540.355 285.074 537.309 285.074Z" fill="white"/>
<path d="M515.984 210.806H436.206V215.948H515.984V210.806Z" fill="#00ACFF"/>
<path d="M429.733 213.282C429.733 215.186 428.209 216.709 426.305 216.709C424.401 216.709 422.878 215.186 422.878 213.282C422.878 211.377 424.401 209.854 426.305 209.854C428.019 209.854 429.733 211.377 429.733 213.282Z" fill="#00ACFF"/>
<path d="M470.859 227.754H426.496V272.124H470.859V227.754Z" fill="#00ACFF"/>
<path opacity="0.4" d="M470.859 227.754H426.496V272.124H470.859V227.754Z" fill="white"/>
<path d="M468.193 230.23H428.971V269.458H468.193V230.23Z" fill="#00ACFF"/>
<path opacity="0.7" d="M468.193 230.23H428.971V269.458H468.193V230.23Z" fill="white"/>
<path d="M428.971 269.458L442.299 251.748L451.248 257.842L461.91 246.035L468.193 252.129V269.458H428.971Z" fill="#00ACFF"/>
<path d="M453.533 239.751C453.533 242.417 451.438 244.702 448.582 244.702C445.917 244.702 443.632 242.608 443.632 239.751C443.632 237.085 445.726 234.8 448.582 234.8C451.438 234.8 453.533 237.085 453.533 239.751Z" fill="#00ACFF"/>
<path d="M531.216 244.893H480.189V250.034H531.216V244.893Z" fill="#010033"/>
<path d="M502.466 258.604H480.189V263.745H502.466V258.604Z" fill="#010033"/>
<path d="M531.216 230.992H480.189V236.133H531.216V230.992Z" fill="#010033"/>
<path d="M470.859 352.295L479.427 328.492C482.664 329.634 485.52 331.539 487.995 333.824C490.47 336.109 492.565 338.965 493.898 342.203L470.859 352.295Z" fill="#00ACFF"/>
<path opacity="0.6" d="M470.859 352.295L479.427 328.492C482.664 329.634 485.52 331.539 487.995 333.824C490.47 336.109 492.565 338.965 493.898 342.203L470.859 352.295Z" fill="white"/>
<path d="M470.859 352.295L478.285 376.48C475.809 377.242 473.334 377.623 470.859 377.623C456.96 377.623 445.536 366.197 445.536 352.295C445.536 338.394 456.96 326.968 470.859 326.968C473.715 326.968 476.571 327.539 479.427 328.492L470.859 352.295Z" fill="#00ACFF"/>
<path d="M470.859 352.295L494.088 342.393C495.421 345.63 496.182 348.868 496.182 352.295C496.182 363.34 488.947 373.243 478.475 376.48L470.859 352.295Z" fill="#00ACFF"/>
<path opacity="0.3" d="M470.859 352.295L494.088 342.393C495.421 345.63 496.182 348.868 496.182 352.295C496.182 363.34 488.947 373.243 478.475 376.48L470.859 352.295Z" fill="black"/>
<path d="M634.413 276.314H599.189V311.543H634.413V276.314Z" fill="#00ACFF"/>
<path d="M450.677 407.901H415.453V443.13H450.677V407.901Z" fill="#00ACFF"/>
<path d="M493.326 407.901H458.102V443.13H493.326V407.901Z" fill="#00ACFF"/>
<path d="M537.69 407.901H502.466V443.13H537.69V407.901Z" fill="#010033"/>
<path d="M450.867 453.414H415.643V488.643H450.867V453.414Z" fill="white"/>
<path d="M680.299 276.314H645.075V311.543H680.299V276.314Z" fill="white"/>
<path d="M240.285 109.116C228.099 143.394 190.4 161.104 156.128 148.916C121.856 136.538 104.149 98.8331 116.334 64.7462C128.52 30.4688 166.219 12.7588 200.491 24.9463C234.763 37.1338 252.47 74.8389 240.285 109.116Z" fill="#00ACFF"/>
<path opacity="0.3" d="M240.285 109.116C228.099 143.394 190.4 161.104 156.128 148.916C121.856 136.538 104.149 98.8331 116.334 64.7462C128.52 30.4688 166.219 12.7588 200.491 24.9463C234.763 37.1338 252.47 74.8389 240.285 109.116Z" fill="black"/>
<path d="M220.03 131.612C245.683 105.955 245.683 64.358 220.03 38.7014C194.378 13.0449 152.787 13.0449 127.134 38.7014C101.482 64.358 101.482 105.955 127.134 131.612C152.787 157.269 194.378 157.269 220.03 131.612Z" fill="#00ACFF"/>
<path d="M198.47 133.796C225.344 120.062 235.999 87.1386 222.267 60.2595C208.536 33.3805 175.618 22.7241 148.743 36.458C121.868 50.1918 111.213 83.115 124.945 109.994C138.677 136.873 171.595 147.529 198.47 133.796Z" fill="white"/>
<path d="M167.171 131.587L168.885 118.638C169.075 118.638 169.456 118.638 169.646 118.828L168.123 131.777C167.933 131.587 167.552 131.587 167.171 131.587ZM147.179 123.97C146.798 123.779 146.608 123.589 146.227 123.399L153.843 112.925C154.034 113.115 154.224 113.306 154.414 113.306L147.179 123.97ZM189.448 129.302L185.069 117.114L185.83 116.924L190.4 129.111C190.21 129.111 189.829 129.111 189.448 129.302ZM132.328 107.212C132.138 106.831 131.947 106.641 131.757 106.26L143.371 100.357L143.752 101.118L132.328 107.212ZM208.107 116.924L198.587 108.164L199.158 107.593L209.059 115.972L208.869 116.162C208.678 116.353 208.298 116.543 208.107 116.924ZM126.806 85.503C126.806 85.1222 126.806 84.7413 126.806 84.3604L139.754 84.5509C139.754 84.7413 139.754 85.1222 139.754 85.3126L126.806 85.503ZM206.394 93.8819C206.394 93.6915 206.584 93.5011 206.584 93.1202L219.15 96.1671C219.15 96.548 218.96 96.9288 218.96 97.3097L206.394 93.8819ZM143.562 69.6973L132.138 63.794L132.709 62.8419L144.133 68.9356L143.562 69.6973ZM206.584 77.6954L206.394 76.9337L218.96 73.6964C218.96 74.0772 219.15 74.4581 219.15 74.6485L206.584 77.6954ZM154.224 57.5098L146.798 46.8457C146.989 46.6553 147.37 46.4649 147.75 46.2745L154.986 57.129L154.224 57.5098ZM199.349 63.2227C199.158 63.0323 198.968 62.8419 198.778 62.6514L208.488 53.8916C208.678 54.0821 209.059 54.4629 209.25 54.6534L199.349 63.2227ZM169.456 51.6065L167.742 38.6573C168.123 38.6573 168.504 38.6573 168.885 38.4668L170.218 51.4161C169.837 51.6065 169.646 51.6065 169.456 51.6065ZM186.211 53.7012L185.45 53.5108L190.019 41.3233C190.4 41.5137 190.781 41.5137 190.971 41.7041L186.211 53.7012Z" fill="black"/>
<path d="M152.32 72.9346L174.025 87.4073L183.926 59.795" stroke="black" stroke-miterlimit="10" stroke-linecap="round" stroke-linejoin="round"/>
<path d="M177.833 86.6456C177.262 88.7403 174.977 90.0733 172.883 89.502C170.789 88.9308 169.456 86.6456 170.027 84.5509C170.598 82.4561 172.883 81.1231 174.977 81.6944C177.072 82.2657 178.405 84.5509 177.833 86.6456Z" fill="black"/>
<path opacity="0.3" d="M125.474 69.6973C135.565 41.3233 166.981 26.4698 195.35 36.753C202.395 39.2286 208.488 43.0372 213.629 47.7979C207.917 41.5137 200.491 36.5625 192.114 33.5157C163.744 23.4229 132.328 38.086 122.237 66.46C114.621 87.9786 121.094 111.021 136.898 125.303C123.379 110.83 118.238 89.5021 125.474 69.6973Z" fill="black"/>
<path d="M835.285 165.674H790.731C779.307 165.674 769.978 175.005 769.978 186.431V211.377C769.978 222.803 779.307 232.134 790.731 232.134H800.822L802.346 243.75L814.722 232.134H835.285C846.709 232.134 856.038 222.803 856.038 211.377V186.431C855.848 175.005 846.709 165.674 835.285 165.674Z" fill="#00ACFF"/>
<path d="M823.48 198.999C823.48 201.856 825.955 204.331 828.811 204.331C831.667 204.331 834.142 201.856 834.142 198.999C834.142 196.143 831.667 193.667 828.811 193.667C825.765 193.667 823.48 195.952 823.48 198.999Z" fill="white"/>
<path d="M805.392 198.999C805.392 201.856 807.867 204.331 810.723 204.331C813.579 204.331 816.054 201.856 816.054 198.999C816.054 196.143 813.579 193.667 810.723 193.667C807.677 193.667 805.392 195.952 805.392 198.999Z" fill="white"/>
<path d="M786.733 198.999C786.733 201.856 789.208 204.331 792.064 204.331C794.92 204.331 797.395 201.856 797.395 198.999C797.395 196.143 794.92 193.667 792.064 193.667C789.208 193.667 786.733 195.952 786.733 198.999Z" fill="white"/>
<path d="M836.427 161.675C827.098 161.675 817.578 161.675 808.248 161.675C807.296 161.675 807.296 163.198 808.248 163.198C817.578 163.198 827.098 163.198 836.427 163.198C837.379 163.008 837.379 161.675 836.427 161.675Z" fill="#00ACFF"/>
<path d="M804.63 161.675C803.869 161.675 803.107 161.675 802.346 161.675C801.394 161.675 801.394 163.198 802.346 163.198C803.107 163.198 803.869 163.198 804.63 163.198C805.582 163.008 805.582 161.675 804.63 161.675Z" fill="#00ACFF"/>
<path d="M811.866 431.705C811.866 431.705 810.914 448.462 802.726 477.979C797.586 496.26 791.302 514.161 784.067 531.49C779.878 541.392 775.309 551.866 769.787 562.911C767.312 567.862 764.837 573.004 761.981 578.145C758.744 667.457 708.859 758.102 708.859 758.102C706.003 759.625 696.483 757.911 696.483 755.245C703.909 743.438 718.57 629.18 727.899 574.908C728.47 567.481 729.422 559.674 730.374 551.485C733.04 529.586 737.229 505.782 741.227 484.835C747.51 451.89 753.413 425.992 753.413 425.992L769.978 427.515L811.866 431.705Z" fill="#E1BFB9"/>
<path d="M831.477 555.103C830.144 564.625 828.43 574.908 826.336 585.953C844.234 645.557 807.486 762.101 807.486 762.101C801.203 763.243 795.682 762.481 793.016 760.387C799.87 725.348 794.92 634.132 789.589 579.478C789.018 574.527 788.446 569.005 787.875 563.292C786.733 553.389 785.4 542.535 784.067 531.49C781.592 512.828 778.926 493.023 776.642 475.504C773.786 454.366 771.12 436.465 769.787 427.515C769.216 423.516 768.835 421.421 768.835 421.421L820.434 426.944C820.434 426.944 833.571 441.607 835.666 487.691C836.237 510.162 834.904 532.823 831.477 555.103Z" fill="#E1BFB9"/>
<path opacity="0.2" d="M831.477 555.103C817.387 559.864 802.727 562.72 787.685 563.292C786.543 553.389 785.21 542.535 783.877 531.49C779.688 541.392 775.119 551.866 769.597 562.911C755.888 561.578 742.37 557.769 730.184 551.485C732.85 529.586 737.039 505.782 741.037 484.835C746.559 481.597 752.461 479.312 758.554 477.789C764.456 476.456 770.358 475.694 776.451 475.694C785.21 475.694 793.968 476.456 802.726 478.17C813.96 480.264 824.813 483.502 835.475 487.881C836.237 510.162 834.904 532.823 831.477 555.103Z" fill="black"/>
<path d="M808.819 777.335H805.963L805.202 773.717L795.682 778.097H771.501C771.501 778.097 767.693 774.288 779.117 771.241C779.688 771.051 780.259 770.86 780.83 770.67C786.923 767.813 795.682 758.102 795.682 758.102H809.01C809.39 758.673 809.771 759.435 810.152 760.006C811.294 762.862 813.77 768.956 808.819 777.335Z" fill="#010033"/>
<path d="M809.962 759.815C808.248 757.911 800.251 766.48 794.349 769.337C789.208 772.003 783.306 773.145 780.64 770.479C786.733 767.623 796.443 755.055 796.443 755.055H807.106C807.106 755.055 809.2 758.673 809.962 759.815Z" fill="#E1BFB9"/>
<path d="M708.288 777.335H705.432L704.67 773.717L695.15 778.097H670.97C670.97 778.097 667.162 774.288 678.586 771.241C679.157 771.051 679.728 770.86 680.299 770.67C686.392 767.813 695.15 758.102 695.15 758.102H708.478C708.859 758.673 709.24 759.435 709.621 760.006C710.763 762.862 713.238 768.956 708.288 777.335Z" fill="#010033"/>
<path d="M709.431 759.815C707.717 757.911 699.72 766.48 694.008 769.337C688.867 772.003 682.965 773.145 680.299 770.479C686.392 767.623 697.435 754.102 697.435 754.102L706.765 755.055C706.575 755.055 708.669 758.673 709.431 759.815Z" fill="#E1BFB9"/>
<path d="M752.27 421.421H820.814L822.718 430.181C822.718 430.181 847.851 465.03 835.094 551.866C835.094 551.866 779.878 558.15 727.899 547.105C727.899 547.105 739.514 457.794 751.699 428.658L752.27 421.421Z" fill="#010033"/>
<path d="M727.328 286.026C729.422 292.5 730.565 299.356 730.946 306.402C730.946 306.402 768.264 302.784 775.88 292.881C783.496 282.979 779.117 236.895 758.744 237.657C738.181 238.228 717.808 259.366 727.328 286.026Z" fill="#010033"/>
<path d="M736.467 246.988C728.28 254.795 727.328 264.317 728.661 270.601C731.326 279.17 735.515 284.693 739.323 292.691L753.032 237.657C747.891 239.751 745.225 238.99 736.467 246.988Z" fill="#010033"/>
<path d="M765.218 237.847C783.877 241.084 792.635 250.987 793.968 263.936C795.301 276.885 782.544 293.453 780.069 294.405L772.453 297.261C772.453 297.261 780.83 278.028 777.403 272.886C773.976 267.744 771.501 267.744 771.501 267.744L765.218 237.847Z" fill="#010033"/>
<path d="M747.51 240.323C755.697 234.419 765.598 237.847 771.31 240.323C777.784 244.131 782.353 250.415 783.877 257.842C785.209 264.698 786.733 273.267 783.115 277.456C781.211 279.932 778.165 281.646 774.928 281.836L734.944 256.509C737.8 250.225 741.989 244.702 747.51 240.323Z" fill="#010033"/>
<path d="M763.504 334.205C766.55 336.49 768.835 335.157 772.072 333.062C791.683 321.636 783.686 312.686 783.686 312.686C778.926 308.687 777.594 303.164 777.594 294.405C777.594 294.214 777.594 293.833 777.403 293.643C777.213 292.5 776.642 291.548 775.88 290.596C773.595 288.311 769.978 288.311 767.883 290.596L758.934 294.976C758.934 295.166 758.934 295.166 758.934 295.357C759.696 299.927 760.458 303.545 761.029 306.402C761.029 306.783 761.219 307.163 761.219 307.354C761.219 307.735 761.219 308.116 761.41 308.497C761.981 312.496 756.269 319.351 753.984 321.255C752.461 322.588 753.032 326.778 763.504 334.205Z" fill="#E1BFB9"/>
<path opacity="0.2" d="M758.934 294.976C758.934 295.166 758.934 295.357 758.934 295.357C759.696 299.927 760.458 303.545 761.029 306.402C761.029 306.783 761.219 307.163 761.219 307.354C761.219 307.735 761.219 308.116 761.219 308.496C768.073 305.259 773.595 300.118 777.213 293.453C777.022 292.31 776.451 291.358 775.69 290.406C773.405 288.12 769.978 288.12 767.693 290.215L758.934 294.976Z" fill="black"/>
<path d="M778.926 260.889C781.401 276.885 782.925 283.741 776.832 293.833C767.693 309.068 747.891 309.068 740.656 294.024C734.182 280.503 731.136 256.509 744.845 246.416C758.553 236.324 776.261 244.702 778.926 260.889Z" fill="#E1BFB9"/>
<path d="M788.446 273.267C787.494 277.076 785.019 279.932 782.354 281.265C778.355 283.36 774.547 277.266 774.738 272.696C774.928 268.506 778.355 264.888 782.734 264.698C786.923 264.507 789.589 268.887 788.446 273.267Z" fill="#E1BFB9"/>
<path opacity="0.2" d="M779.307 274.79C778.926 273.267 779.307 271.553 780.259 270.411C781.211 269.077 782.544 268.125 784.067 267.935" stroke="black" stroke-width="0.5" stroke-miterlimit="10" stroke-linecap="round" stroke-linejoin="round"/>
<path d="M759.125 271.553C759.505 273.267 758.934 274.79 757.982 275.171C757.03 275.552 755.888 274.41 755.507 272.696C755.126 270.982 755.697 269.458 756.649 269.077C757.792 268.697 758.934 269.839 759.125 271.553Z" fill="#010033"/>
<path d="M743.512 275.743C743.893 277.456 743.321 278.98 742.369 279.361C741.417 279.742 740.275 278.599 739.894 276.885C739.513 275.171 740.085 273.648 741.037 273.267C742.179 272.886 743.321 274.029 743.512 275.743Z" fill="#010033"/>
<path d="M761.029 264.888C760.838 264.888 760.648 264.888 760.457 264.888C757.411 263.365 754.936 264.888 754.936 264.888C754.555 265.078 754.174 265.078 753.793 264.698C753.603 264.317 753.793 263.745 754.174 263.555C754.365 263.555 757.411 261.46 761.219 263.555C761.6 263.745 761.79 264.317 761.6 264.698C761.219 264.507 761.029 264.698 761.029 264.888Z" fill="#010033"/>
<path d="M736.277 269.268C736.086 269.268 735.896 269.268 735.896 269.077C735.705 268.697 735.705 268.316 736.086 267.935C739.133 264.888 742.179 265.65 742.369 265.84C742.75 266.031 742.941 266.411 742.75 266.792C742.56 267.173 742.179 267.554 741.798 267.364C741.608 267.364 739.323 266.792 736.848 269.077C736.657 269.077 736.277 269.268 736.277 269.268Z" fill="#010033"/>
<path d="M747.701 273.838C747.701 273.838 746.749 280.503 745.035 284.883C744.654 285.645 745.225 286.597 746.177 286.597C748.272 286.787 750.366 285.454 750.366 285.454L747.701 273.838Z" fill="#CD877B"/>
<path d="M757.221 268.887L753.413 269.077C753.413 269.077 756.078 271.172 757.221 268.887Z" fill="#010033"/>
<path d="M741.417 273.267L737.609 273.457C737.609 273.267 740.275 275.552 741.417 273.267Z" fill="#010033"/>
<path d="M752.08 289.644C753.603 290.977 756.078 293.643 756.078 293.643C756.269 293.453 756.649 293.262 756.84 293.072C760.648 290.786 761.6 288.311 761.409 286.407C761.409 285.454 761.029 284.502 760.648 283.741C760.267 282.979 759.696 282.408 759.696 282.408C758.363 284.883 755.126 287.359 753.222 288.501C752.651 289.453 752.08 289.644 752.08 289.644Z" fill="#010033"/>
<path d="M753.413 288.882L754.555 290.025C758.173 287.74 760.267 285.645 760.648 283.931C760.267 283.169 759.696 282.598 759.696 282.598C758.553 285.074 755.317 287.549 753.413 288.882Z" fill="white"/>
<path d="M756.84 293.072C760.648 290.786 761.6 288.311 761.409 286.407C760.077 287.168 758.744 288.501 757.792 289.834C757.221 290.977 756.84 292.119 756.84 293.072Z" fill="#DE5753"/>
<path d="M773.976 265.65C773.976 265.65 762.933 256.89 761.029 247.94C761.029 247.94 726.947 246.607 735.134 274.41C735.134 274.41 723.52 251.177 749.605 242.417C775.69 233.658 787.494 267.554 777.594 281.836C777.594 281.836 780.83 271.172 773.976 265.65Z" fill="#010033"/>
<path d="M738.181 248.13C735.325 252.129 733.802 257.08 733.802 262.032C734.373 265.459 739.704 267.173 739.704 267.173L744.083 258.604L745.226 265.269C754.555 262.412 759.125 256.509 761.029 248.511L753.984 239.942C753.984 239.942 740.656 244.893 738.181 248.13Z" fill="#010033"/>
<path opacity="0.2" d="M736.848 372.1C736.848 372.1 733.992 361.246 739.895 343.726C739.895 343.726 726.376 358.199 730.375 368.291C732.85 374.766 733.04 375.337 733.04 375.337L736.848 372.1Z" fill="black"/>
<path d="M818.911 394.38L823.861 430.752L748.082 425.801C748.653 436.846 755.507 399.141 754.555 393.428C752.27 386.382 740.656 375.718 737.61 367.339C734.373 355.533 741.037 323.16 743.322 322.207C745.987 320.874 749.415 321.065 751.319 320.113C759.315 318.208 777.403 311.734 785.591 310.782C787.114 310.591 788.637 310.401 790.351 310.21C790.351 310.21 821.005 308.687 822.528 321.255C822.718 322.017 815.293 354.771 818.911 394.38Z" fill="#00ACFF"/>
<path opacity="0.2" d="M821.005 386.001L804.63 345.63L809.771 382.193L796.062 392.095L821.005 386.001Z" fill="black"/>
<path opacity="0.2" d="M786.162 418.184C787.114 417.994 793.968 409.424 793.968 409.424H821.005L819.862 401.045C820.624 400.474 788.446 401.807 788.446 401.807L786.162 411.9V418.184Z" fill="black"/>
<path d="M809.39 313.067C810.723 313.257 816.054 310.21 825.765 322.588C835.475 334.966 849.946 393.238 846.709 399.522C843.472 405.806 786.162 406.758 786.162 406.758V391.905L818.339 384.668C818.339 384.668 800.061 340.679 802.917 329.444C805.773 318.018 809.39 313.067 809.39 313.067Z" fill="#00ACFF"/>
<path d="M794.92 310.02C792.635 322.588 783.115 332.681 770.739 335.918C766.36 336.871 761.6 334.585 757.982 331.729C754.555 328.872 752.08 324.683 751.509 320.303C766.55 314.209 780.259 308.877 794.92 310.02Z" fill="#E1BFB9"/>
<path d="M746.558 321.827C746.558 321.827 740.466 321.065 735.134 327.73C727.138 337.632 697.625 367.339 697.625 367.339L654.976 347.344L647.741 361.055C647.741 361.055 688.867 392.286 699.72 392.286C717.427 392.095 742.75 366.387 742.75 366.387L746.558 321.827Z" fill="#00ACFF"/>
<path d="M780.45 434.18H651.549C648.312 434.18 645.837 431.514 645.837 428.467V348.487C645.837 345.249 648.503 342.774 651.549 342.774H780.45C783.686 342.774 786.162 345.44 786.162 348.487V428.467C786.162 431.514 783.686 434.18 780.45 434.18Z" fill="#00ACFF"/>
<path opacity="0.9" d="M780.45 434.18H651.549C648.312 434.18 645.837 431.514 645.837 428.467V348.487C645.837 345.249 648.503 342.774 651.549 342.774H780.45C783.686 342.774 786.162 345.44 786.162 348.487V428.467C786.162 431.514 783.686 434.18 780.45 434.18Z" fill="white"/>
<path d="M758.363 357.247H675.349V362.579H758.363V357.247Z" fill="#00ACFF"/>
<path d="M664.877 363.34C666.875 363.34 668.495 361.72 668.495 359.722C668.495 357.724 666.875 356.104 664.877 356.104C662.879 356.104 661.259 357.724 661.259 359.722C661.259 361.72 662.879 363.34 664.877 363.34Z" fill="#00ACFF"/>
<path d="M711.334 374.766H665.258V420.85H711.334V374.766Z" fill="#00ACFF"/>
<path opacity="0.4" d="M711.334 374.766H665.258V420.85H711.334V374.766Z" fill="white"/>
<path d="M708.669 377.432H667.923V418.184H708.669V377.432Z" fill="#00ACFF"/>
<path opacity="0.7" d="M708.669 377.432H667.923V418.184H708.669V377.432Z" fill="white"/>
<path d="M667.923 418.184L681.632 399.712L690.771 405.997L701.814 393.809L708.478 400.093V418.184H667.923Z" fill="#00ACFF"/>
<path d="M693.246 387.144C693.246 390 690.962 392.286 688.106 392.286C685.25 392.286 682.965 390 682.965 387.144C682.965 384.288 685.25 382.002 688.106 382.002C690.962 382.193 693.246 384.288 693.246 387.144Z" fill="#00ACFF"/>
<path d="M774.167 392.476H721.045V397.808H774.167V392.476Z" fill="#010033"/>
<path d="M744.274 406.758H721.045V412.09H744.274V406.758Z" fill="#010033"/>
<path d="M774.167 378.194H721.045V383.526H774.167V378.194Z" fill="#010033"/>
<path d="M785.971 394.19C785.971 394.19 772.834 397.427 771.691 400.093C770.549 402.759 774.547 402.569 774.547 402.569C774.547 402.569 769.978 403.14 769.978 405.044C769.978 407.33 774.166 407.139 774.166 407.139C774.166 407.139 770.549 407.71 770.549 409.424C770.549 411.138 775.499 411.329 775.499 411.329C775.499 411.329 773.024 412.281 773.786 413.423C774.547 414.566 784.829 414.947 787.875 413.042C790.922 411.138 790.922 397.808 790.35 394.952C789.779 392.095 789.398 390.572 785.781 386.001L785.971 394.19Z" fill="#E1BFB9"/>
<path opacity="0.2" d="M774.547 402.759L782.353 401.426C782.544 401.426 782.544 401.236 782.544 401.236C782.544 401.045 782.353 401.045 782.353 401.045L774.547 402.378C774.357 402.378 774.357 402.569 774.357 402.569C774.357 402.759 774.547 402.759 774.547 402.759Z" fill="black"/>
<path opacity="0.2" d="M774.547 407.33L782.163 406.758C782.353 406.758 782.353 406.568 782.353 406.568C782.353 406.377 782.353 406.377 782.163 406.377L774.547 406.949C774.357 406.949 774.357 407.139 774.357 407.139C774.357 407.139 774.357 407.33 774.547 407.33Z" fill="black"/>
<path opacity="0.2" d="M775.88 411.519L781.592 411.329C781.782 411.329 781.782 411.138 781.782 411.138C781.782 410.948 781.592 410.948 781.592 410.948L775.88 411.138C775.689 411.138 775.689 411.329 775.689 411.329L775.88 411.519Z" fill="black"/>
<path d="M645.837 387.906C645.837 387.906 658.974 391.143 660.117 393.809C661.259 396.475 657.261 396.285 657.261 396.285C657.261 396.285 661.83 396.856 661.83 398.76C661.83 401.045 657.642 400.855 657.642 400.855C657.642 400.855 661.259 401.426 661.259 403.14C661.259 404.854 656.309 405.044 656.309 405.044C656.309 405.044 658.784 405.997 658.022 407.139C657.261 408.282 646.979 408.663 643.933 406.758C640.886 404.854 640.886 391.524 641.458 388.667C642.029 385.811 642.41 384.288 646.027 379.717L645.837 387.906Z" fill="#E1BFB9"/>
<path opacity="0.2" d="M657.261 396.475L649.454 395.142C649.264 395.142 649.264 394.952 649.264 394.952C649.264 394.761 649.454 394.761 649.454 394.761L657.261 396.094C657.451 396.094 657.451 396.285 657.451 396.285L657.261 396.475Z" fill="black"/>
<path opacity="0.2" d="M657.261 400.855L649.645 400.284C649.454 400.284 649.454 400.093 649.454 400.093C649.454 399.903 649.454 399.903 649.645 399.903L657.261 400.474C657.451 400.474 657.451 400.665 657.451 400.665C657.451 400.855 657.451 400.855 657.261 400.855Z" fill="black"/>
<path opacity="0.2" d="M655.928 405.044L650.216 404.854C650.026 404.854 650.026 404.664 650.026 404.664C650.026 404.473 650.216 404.473 650.216 404.473L655.928 404.664C656.118 404.664 656.118 404.854 656.118 404.854C656.118 405.044 655.928 405.044 655.928 405.044Z" fill="black"/>
<path d="M108.528 328.872C108.528 328.872 96.3423 371.91 104.149 379.527C111.955 386.954 139.182 382.002 137.849 381.431C136.517 380.86 144.704 329.063 145.275 330.967C145.846 332.681 108.528 328.872 108.528 328.872Z" fill="#CD877B"/>
<path d="M309.971 401.426H186.211C182.974 401.426 180.499 398.76 180.499 395.713V275.933C180.499 272.696 183.165 270.22 186.211 270.22H309.971C313.208 270.22 315.683 272.886 315.683 275.933V395.713C315.683 398.951 313.018 401.426 309.971 401.426Z" fill="#00ACFF"/>
<path opacity="0.9" d="M309.971 401.426H186.211C182.974 401.426 180.499 398.76 180.499 395.713V275.933C180.499 272.696 183.165 270.22 186.211 270.22H309.971C313.208 270.22 315.683 272.886 315.683 275.933V395.713C315.683 398.951 313.018 401.426 309.971 401.426Z" fill="white"/>
<path d="M288.647 284.121H208.869V289.263H288.647V284.121Z" fill="#00ACFF"/>
<path d="M298.738 361.817H195.35V366.958H298.738V361.817Z" fill="#010033"/>
<path d="M246.378 375.337H195.35V380.479H246.378V375.337Z" fill="#010033"/>
<path d="M202.395 286.597C202.395 288.501 200.872 290.025 198.968 290.025C197.064 290.025 195.541 288.501 195.541 286.597C195.541 284.693 197.064 283.169 198.968 283.169C200.682 283.169 202.395 284.693 202.395 286.597Z" fill="#00ACFF"/>
<path d="M298.738 303.545H254.375V347.915H298.738V303.545Z" fill="#00ACFF"/>
<path opacity="0.4" d="M298.738 303.545H254.375V347.915H298.738V303.545Z" fill="white"/>
<path d="M296.262 306.021H257.04V345.249H296.262V306.021Z" fill="#00ACFF"/>
<path opacity="0.7" d="M296.262 306.021H257.04V345.249H296.262V306.021Z" fill="white"/>
<path d="M257.04 345.249L270.368 327.539L279.126 333.633L289.789 321.827L296.262 327.92V345.249H257.04Z" fill="#00ACFF"/>
<path d="M281.411 315.542C281.411 318.208 279.317 320.494 276.461 320.494C273.795 320.494 271.51 318.399 271.51 315.542C271.51 312.876 273.605 310.591 276.461 310.591C279.317 310.591 281.411 312.876 281.411 315.542Z" fill="#00ACFF"/>
<path d="M245.807 303.545H201.443V347.915H245.807V303.545Z" fill="#00ACFF"/>
<path opacity="0.4" d="M245.807 303.545H201.443V347.915H245.807V303.545Z" fill="white"/>
<path d="M243.331 306.021H204.109V345.249H243.331V306.021Z" fill="#00ACFF"/>
<path opacity="0.7" d="M243.331 306.021H204.109V345.249H243.331V306.021Z" fill="white"/>
<path d="M204.109 345.249L217.437 327.539L226.195 333.633L236.858 321.827L243.331 327.92V345.249H204.109Z" fill="#00ACFF"/>
<path d="M228.48 315.542C228.48 318.208 226.386 320.494 223.53 320.494C220.864 320.494 218.579 318.399 218.579 315.542C218.579 312.876 220.674 310.591 223.53 310.591C226.386 310.591 228.48 312.876 228.48 315.542Z" fill="#00ACFF"/>
<path d="M122.998 717.921V755.245L140.325 756.578L146.417 721.539C138.421 715.826 130.614 714.303 122.998 717.921Z" fill="#CD877B"/>
<path d="M123.57 751.436C121.856 756.388 121.666 776.573 121.666 776.573H158.413C160.507 769.337 157.27 764.195 152.891 763.624C150.987 763.434 148.893 761.339 147.37 759.434C147.37 759.244 145.085 748.009 143.752 747.437C143.752 747.437 142.8 746.295 142.038 747.437C141.277 748.58 140.515 752.389 140.515 752.389C134.803 744.771 129.091 745.724 123.57 751.436Z" fill="#010033"/>
<path d="M123.189 757.149C127.378 755.435 131.757 756.197 135.374 758.863C135.946 759.435 136.517 758.292 135.946 757.721C132.138 754.864 127.187 754.102 122.808 755.816C122.046 756.197 122.427 757.53 123.189 757.149Z" fill="white"/>
<path d="M158.413 773.526H122.237C121.856 773.526 121.666 773.145 121.666 772.955C121.666 772.574 121.856 772.384 122.237 772.384H158.413C158.794 772.384 158.984 772.765 158.984 772.955C158.984 773.336 158.794 773.526 158.413 773.526Z" fill="white"/>
<path d="M116.525 736.393L153.462 738.297C161.84 711.446 170.027 614.898 170.789 585.953C171.741 551.295 184.117 464.459 173.264 446.558C162.221 428.467 112.717 442.94 112.717 442.94C112.717 442.94 118.81 548.629 116.334 582.335C114.43 611.47 111.194 697.354 116.525 736.393Z" fill="#010033"/>
<path d="M157.461 728.585L155.176 740.963L115.002 739.63L113.669 727.633L157.461 728.585Z" fill="#00ACFF"/>
<path d="M197.826 712.97V755.245L214.581 756.578L222.768 717.159C216.104 711.637 208.298 708.971 197.826 712.97Z" fill="#CD877B"/>
<path d="M197.826 751.436C196.112 756.388 195.922 776.573 195.922 776.573H238.19C240.285 769.337 235.715 764.957 231.526 764.195C229.622 764.005 223.149 761.148 221.626 759.435C221.626 759.244 219.341 748.009 218.008 747.437C218.008 747.437 217.056 746.295 216.294 747.437C215.533 748.58 214.771 752.389 214.771 752.389C209.059 744.771 203.347 745.914 197.826 751.436Z" fill="#010033"/>
<path d="M197.445 757.34C201.634 755.626 206.013 756.388 209.63 759.054C210.202 759.625 210.773 758.482 210.202 757.911C206.394 755.055 201.443 754.293 197.064 756.007C196.302 756.388 196.683 757.53 197.445 757.34Z" fill="white"/>
<path d="M238.19 773.717H196.302C195.922 773.717 195.731 773.336 195.731 773.145C195.731 772.765 195.922 772.574 196.302 772.574H238.19C238.571 772.574 238.762 772.955 238.762 773.145C238.952 773.336 238.571 773.717 238.19 773.717Z" fill="white"/>
<path d="M190.4 736.393L227.147 738.297C231.526 708.59 249.614 600.045 248.091 579.288C246.378 553.961 225.053 444.083 217.246 435.704C209.44 427.325 151.558 449.224 151.558 449.224C151.558 449.224 175.358 543.677 194.018 584.429C197.826 592.808 187.354 700.02 190.4 736.393Z" fill="#010033"/>
<path d="M231.336 729.537L229.432 740.963L188.686 738.297L187.925 726.3L231.336 729.537Z" fill="#00ACFF"/>
<g opacity="0.3">
<path d="M165.458 512.256C164.696 510.733 164.125 509.21 163.363 507.686C159.936 499.307 157.27 490.547 155.176 481.597C149.083 481.026 143.181 479.693 137.469 477.598C136.707 477.408 137.088 476.075 137.85 476.265C146.989 479.503 156.509 480.836 166.219 480.645C166.981 480.645 166.981 481.978 166.219 481.978C162.982 481.978 159.746 481.978 156.699 481.597C158.794 490.357 161.459 499.117 164.886 507.496C168.314 515.875 172.693 523.682 177.072 531.49C177.453 532.252 176.501 532.823 176.12 532.061C172.883 526.348 169.646 520.445 166.981 514.542C166.79 521.778 165.838 543.868 165.077 573.194C163.554 623.658 151.749 705.924 148.322 728.204H146.608C149.845 706.305 161.84 623.848 163.363 573.194C164.506 538.726 165.267 513.97 165.458 512.256Z" fill="white"/>
<path d="M121.666 581.383C132.328 580.811 142.99 581.002 153.653 582.335C154.414 582.335 154.414 583.668 153.653 583.668C142.99 582.335 132.328 582.144 121.666 582.716C120.714 582.716 120.904 581.383 121.666 581.383Z" fill="white"/>
<path d="M241.427 581.382C240.666 565.577 222.387 498.165 222.197 497.403C222.197 497.022 222.197 496.641 222.578 496.641C222.958 496.451 223.149 496.832 223.339 497.022C224.101 499.879 241.808 565.196 242.57 581.192C243.331 594.903 224.291 722.301 223.53 727.823C223.53 728.204 223.149 728.394 222.958 728.394C222.958 728.394 222.958 728.394 222.768 728.394C222.387 728.394 222.197 728.014 222.197 727.633C222.578 726.49 242.189 595.093 241.427 581.382Z" fill="white"/>
<path d="M230.955 490.547C217.246 484.835 212.677 468.648 209.44 454.556C209.25 453.794 210.392 453.414 210.582 454.175C213.819 467.696 218.008 483.692 231.146 489.214C232.098 489.595 231.717 490.928 230.955 490.547Z" fill="white"/>
<path d="M200.301 582.525C209.249 581.954 218.198 581.383 227.147 580.621C227.909 580.621 227.909 581.954 227.147 581.954C218.198 582.525 209.249 583.096 200.301 583.858C199.539 584.049 199.539 582.716 200.301 582.525Z" fill="white"/>
</g>
<path d="M195.16 213.662C195.16 215.186 195.922 216.328 196.874 216.519C197.826 216.709 198.778 215.376 198.778 213.853C198.778 212.329 198.207 211.187 197.064 210.996C196.112 210.806 195.351 212.139 195.16 213.662Z" fill="#010033"/>
<path d="M195.731 213.472C196.303 218.423 197.445 223.374 199.349 228.135C196.874 229.087 194.208 228.897 191.923 227.564L195.731 213.472Z" fill="#A24E3F"/>
<path d="M192.304 208.711C192.114 208.711 191.923 208.711 191.733 208.521C191.352 208.14 191.352 207.569 191.733 207.188C193.637 204.903 196.302 203.76 199.158 203.95C199.73 203.95 199.92 204.331 199.92 204.903C199.92 205.474 199.349 205.664 198.968 205.664C196.683 205.474 194.398 206.616 193.066 208.33C192.875 208.521 192.494 208.711 192.304 208.711Z" fill="#010033"/>
<path d="M195.731 234.229C195.541 234.991 195.35 235.943 194.97 236.704C193.256 241.275 190.21 245.274 186.211 248.13C185.259 248.892 184.117 249.463 182.974 250.034C174.216 254.605 163.554 252.891 156.699 245.845C147.941 237.085 148.131 226.992 147.179 209.854C146.989 206.236 147.56 202.427 148.893 199.19C153.843 187.193 167.933 181.67 179.928 186.621C197.064 193.477 199.539 218.804 195.731 234.229Z" fill="#CD877B"/>
<path opacity="0.2" d="M186.211 248.13C185.259 248.892 184.117 249.463 182.974 250.034C177.072 253.081 170.027 253.462 163.934 250.796C164.696 248.701 165.838 246.797 166.981 245.083C173.645 244.322 180.309 245.274 186.211 248.13Z" fill="black"/>
<path d="M151.178 270.22C159.746 277.837 180.69 274.981 180.69 274.981C180.69 274.981 193.827 271.363 190.971 267.364C183.355 266.031 179.547 262.603 178.024 258.033C177.263 255.176 176.882 252.32 177.263 249.463C177.453 247.749 177.643 246.226 177.834 244.702L151.939 225.85C155.557 238.228 159.555 261.27 151.178 270.22Z" fill="#CD877B"/>
<path d="M186.211 218.614L190.019 219.947L188.115 212.329C188.115 212.329 193.637 204.141 188.115 196.905C188.115 196.905 203.347 192.334 194.779 184.527C191.542 181.67 187.734 184.527 177.262 180.147C171.55 177.671 153.843 177.481 152.891 184.527C152.891 184.527 140.134 184.527 138.802 205.855C138.04 218.614 142.99 230.991 152.32 239.751C152.32 239.751 167.742 243.369 175.358 237.276C182.784 231.372 186.211 218.614 186.211 218.614Z" fill="#010033"/>
<path d="M176.31 219.947C176.882 223.184 179.166 226.04 182.022 227.564C185.64 229.087 187.925 224.136 187.354 218.994C186.782 214.424 184.498 207.949 180.69 208.902C177.072 209.663 175.168 215.376 176.31 219.947Z" fill="#CD877B"/>
<path d="M124.902 266.221C124.902 266.221 118.81 268.125 115.954 269.077C109.67 271.363 105.672 278.409 103.387 285.074C97.8655 301.831 88.9167 341.25 88.9167 341.25L121.285 348.106L138.611 310.972L124.902 266.221Z" fill="#00ACFF"/>
<path opacity="0.5" d="M124.902 266.221C124.902 266.221 116.144 267.744 111.765 271.553C108.338 274.41 105.482 278.599 103.387 285.264C97.8655 302.022 88.9167 341.441 88.9167 341.441L121.285 348.296L138.611 311.162L124.902 266.221Z" fill="white"/>
<path d="M203.347 268.125C193.827 267.173 164.315 260.508 124.902 266.221L115.573 412.281C115.573 412.281 114.43 434.561 110.813 453.794C150.987 471.124 198.397 466.172 225.243 451.7C224.862 452.271 224.101 436.275 222.768 413.042C220.293 371.91 216.294 307.735 211.154 270.601C211.154 269.458 204.299 268.125 203.347 268.125Z" fill="#00ACFF"/>
<g opacity="0.5">
<path d="M203.347 268.125C193.827 267.173 164.315 260.508 124.902 266.221L115.573 412.281C115.573 412.281 114.43 434.561 110.813 453.794C150.987 471.124 198.397 466.172 225.243 451.7C224.862 452.271 224.101 436.275 222.768 413.042C220.293 371.91 216.294 307.735 211.154 270.601C211.154 269.458 204.299 268.125 203.347 268.125Z" fill="white"/>
</g>
<path d="M150.797 264.698C151.939 261.27 153.462 258.985 155.557 257.461L177.643 259.175L187.925 266.031L150.797 264.698Z" fill="#00ACFF"/>
<path opacity="0.5" d="M150.797 264.698C151.939 261.27 153.462 258.985 155.557 257.461L177.643 259.175L187.925 266.031L150.797 264.698Z" fill="white"/>
<path opacity="0.2" d="M202.395 313.448C206.013 329.825 210.963 362.198 220.483 373.433L218.198 340.87L202.395 313.448Z" fill="black"/>
<path opacity="0.2" d="M119.19 347.725L119.952 305.45L111.194 345.63L119.19 347.725Z" fill="black"/>
<path d="M219.15 326.587C218.008 326.968 241.808 380.669 251.518 381.241C261.229 381.812 306.734 361.055 306.734 361.055L296.453 348.868L261.99 350.772L244.474 313.448L219.15 326.587Z" fill="#CD877B"/>
<path d="M207.155 269.839C194.779 278.028 188.686 296.499 221.816 353.628L257.611 331.729C250.376 318.399 242.76 308.687 234.192 289.263C217.056 264.698 207.155 269.839 207.155 269.839Z" fill="#00ACFF"/>
<path opacity="0.5" d="M207.155 269.839C194.779 278.028 188.686 296.499 221.816 353.628L257.611 331.729C250.376 318.399 242.76 308.687 234.192 289.263C217.056 264.698 207.155 269.839 207.155 269.839Z" fill="white"/>
<path d="M322.728 348.296C322.728 345.249 321.776 341.822 320.062 341.631C318.349 341.441 309.4 341.631 309.4 341.631C309.4 339.156 306.734 337.442 304.45 338.584C301.784 339.917 298.928 342.012 298.166 343.916C296.643 347.725 296.072 348.677 296.072 348.677L302.165 362.769C302.165 362.769 313.589 370.196 316.254 367.72C318.92 365.245 318.73 362.198 318.73 362.198C318.73 362.198 321.395 358.58 321.205 356.104C320.824 353.819 322.728 351.534 322.728 348.296Z" fill="#CD877B"/>
</g>
<defs>
<clipPath id="clip0_22_235">
<rect width="952" height="784" fill="white"/>
</clipPath>
</defs>
</svg>
