<svg width="122" height="30" viewBox="0 0 122 30" fill="none" xmlns="http://www.w3.org/2000/svg">
<path d="M51.6697 4.21291C52.4332 4.21291 53.2641 4.25782 54.1624 4.34765C55.0606 4.4225 55.9364 4.58718 56.7898 4.84169L56.5652 7.10983C55.9065 7.09485 55.1355 7.07988 54.2522 7.06491C53.3689 7.04994 52.5006 7.04246 51.6472 7.04246C51.228 7.04246 50.8687 7.05743 50.5693 7.08737C50.2848 7.10234 50.0528 7.16222 49.8731 7.26702C49.6935 7.35685 49.5662 7.49908 49.4913 7.6937C49.4165 7.88833 49.3791 8.15781 49.3791 8.50214C49.3791 9.02613 49.4988 9.4079 49.7384 9.64744C49.9929 9.88698 50.4196 10.1041 51.0184 10.2987L54.0052 11.2643C55.2478 11.6835 56.1086 12.2524 56.5877 12.971C57.0668 13.6897 57.3063 14.6328 57.3063 15.8006C57.3063 16.6839 57.2015 17.4175 56.9919 18.0013C56.7823 18.5852 56.4529 19.0418 56.0038 19.3712C55.5547 19.7006 54.9633 19.9326 54.2297 20.0674C53.4961 20.2171 52.5979 20.2919 51.5349 20.2919C51.0259 20.2919 50.2998 20.2545 49.3566 20.1797C48.4134 20.1198 47.3355 19.9551 46.1228 19.6856L46.3474 17.2603C47.2307 17.2752 47.9942 17.2977 48.638 17.3276C49.2967 17.3426 49.8581 17.3576 50.3222 17.3726C50.7864 17.3726 51.1906 17.3726 51.5349 17.3726C52.1338 17.3726 52.5979 17.3351 52.9272 17.2603C53.2716 17.1854 53.5111 17.0357 53.6458 16.8111C53.7806 16.5866 53.848 16.2647 53.848 15.8455C53.848 15.4862 53.7956 15.2017 53.6908 14.9921C53.6009 14.7676 53.4437 14.5954 53.2192 14.4756C53.0096 14.3409 52.7176 14.2211 52.3434 14.1163L49.1994 13.0384C48.0167 12.6042 47.1783 12.0353 46.6843 11.3317C46.1902 10.628 45.9432 9.69984 45.9432 8.54706C45.9432 7.64879 46.048 6.92269 46.2576 6.36875C46.4821 5.79985 46.819 5.3582 47.2681 5.0438C47.7322 4.72941 48.3236 4.51233 49.0422 4.39256C49.7758 4.27279 50.6516 4.21291 51.6697 4.21291ZM64.7605 8.61443C66.6319 8.61443 67.9719 8.93631 68.7803 9.58007C69.6037 10.2089 70.0154 11.152 70.0154 12.4096C70.0304 13.4277 69.7759 14.1912 69.2519 14.7002C68.7279 15.1943 67.8221 15.4413 66.5346 15.4413H60.3366V13.5774H65.6139C66.1229 13.5774 66.4448 13.4726 66.5795 13.263C66.7292 13.0384 66.8041 12.7315 66.8041 12.3422C66.7891 11.8183 66.6319 11.4589 66.3325 11.2643C66.0481 11.0547 65.5615 10.9499 64.8728 10.9499C64.259 10.9499 63.7799 11.0323 63.4356 11.197C63.0913 11.3616 62.8517 11.676 62.717 12.1401C62.5822 12.6042 62.5149 13.2779 62.5149 14.1612C62.5149 15.0895 62.5972 15.8081 62.7619 16.3171C62.9266 16.8111 63.2035 17.1555 63.5928 17.3501C63.997 17.5447 64.5509 17.642 65.2546 17.642C65.7636 17.642 66.3924 17.6271 67.141 17.5971C67.9045 17.5522 68.668 17.4848 69.4315 17.395L69.7459 19.4386C69.3118 19.6482 68.8177 19.8129 68.2638 19.9326C67.7099 20.0524 67.141 20.1347 66.5571 20.1797C65.9732 20.2395 65.4118 20.2695 64.8728 20.2695C63.4655 20.2695 62.3277 20.0674 61.4594 19.6631C60.606 19.244 59.9847 18.6077 59.5955 17.7543C59.2212 16.901 59.0341 15.8081 59.0341 14.4756C59.0341 13.0234 59.2287 11.8707 59.6179 11.0173C60.0072 10.1639 60.621 9.55013 61.4594 9.17585C62.2978 8.80157 63.3982 8.61443 64.7605 8.61443ZM76.5156 5.82979V16.4518C76.5156 16.8561 76.6054 17.148 76.7851 17.3276C76.9797 17.4923 77.2941 17.5747 77.7283 17.5747H79.1655L79.5248 19.8203C79.2553 19.9102 78.9259 19.985 78.5367 20.0449C78.1474 20.1198 77.7582 20.1722 77.3689 20.2021C76.9797 20.247 76.6503 20.2695 76.3809 20.2695C75.3778 20.2695 74.5918 20 74.0229 19.461C73.469 18.9221 73.192 18.166 73.192 17.1929L73.1695 5.82979H76.5156ZM79.6146 8.90637V11.0847H71.2383V9.01865L73.3941 8.90637H79.6146ZM85.7264 5.82979V16.4518C85.7264 16.8561 85.8162 17.148 85.9959 17.3276C86.1905 17.4923 86.5049 17.5747 86.939 17.5747H88.3763L88.7356 19.8203C88.4661 19.9102 88.1367 19.985 87.7475 20.0449C87.3582 20.1198 86.969 20.1722 86.5797 20.2021C86.1905 20.247 85.8611 20.2695 85.5916 20.2695C84.5886 20.2695 83.8026 20 83.2337 19.461C82.6797 18.9221 82.4028 18.166 82.4028 17.1929L82.3803 5.82979H85.7264ZM88.8254 8.90637V11.0847H80.449V9.01865L82.6049 8.90637H88.8254ZM93.994 8.90637V20H90.6928V8.90637H93.994ZM93.0732 4.01079C93.732 4.01079 94.0613 4.34765 94.0613 5.02135V6.21156C94.0613 6.88526 93.732 7.22211 93.0732 7.22211H91.636C90.9773 7.22211 90.6479 6.88526 90.6479 6.21156V5.02135C90.6479 4.34765 90.9773 4.01079 91.636 4.01079H93.0732ZM104.534 8.61443C106.63 8.61443 107.678 9.63995 107.678 11.691V20H104.355V12.724C104.355 12.23 104.265 11.8931 104.085 11.7135C103.906 11.5188 103.599 11.4215 103.165 11.4215C102.685 11.4215 102.191 11.5188 101.682 11.7135C101.173 11.8931 100.545 12.1776 99.796 12.5668L99.6389 10.7029C100.432 10.0292 101.241 9.5127 102.064 9.15339C102.903 8.79408 103.726 8.61443 104.534 8.61443ZM99.4817 8.90637L99.8634 11.1071L100.133 11.3991V20H96.8093V8.90637H99.4817ZM115.237 8.61443C116.525 8.61443 117.543 8.7342 118.291 8.97374C119.055 9.21327 119.601 9.58755 119.93 10.0966C120.275 10.6056 120.447 11.2868 120.447 12.1401C120.447 12.9636 120.282 13.6373 119.953 14.1612C119.624 14.6703 119.07 15.0445 118.291 15.2841C117.528 15.5236 116.502 15.6434 115.215 15.6434C113.927 15.6434 112.894 15.5236 112.116 15.2841C111.352 15.0445 110.798 14.6703 110.454 14.1612C110.124 13.6522 109.96 12.9785 109.96 12.1401C109.96 11.3018 110.124 10.628 110.454 10.119C110.798 9.59504 111.359 9.21327 112.138 8.97374C112.916 8.7342 113.949 8.61443 115.237 8.61443ZM115.215 10.658C114.391 10.658 113.822 10.7703 113.508 10.9948C113.193 11.2044 113.036 11.5862 113.036 12.1401C113.036 12.6941 113.193 13.0833 113.508 13.3079C113.822 13.5325 114.391 13.6447 115.215 13.6447C116.038 13.6447 116.599 13.5325 116.899 13.3079C117.198 13.0833 117.348 12.6941 117.348 12.1401C117.348 11.5862 117.198 11.2044 116.899 10.9948C116.599 10.7703 116.038 10.658 115.215 10.658ZM121.727 8.90637L121.547 10.3211L118.583 10.7029L117.775 8.90637H121.727ZM111.868 14.9697L113.53 15.2616C113.321 15.3814 113.171 15.5685 113.081 15.823C113.006 16.0776 113.029 16.3171 113.149 16.5417C113.268 16.7662 113.53 16.901 113.935 16.9459L118.022 17.4175C119.189 17.5372 120.013 17.8666 120.492 18.4056C120.971 18.9296 121.21 19.7006 121.21 20.7186C121.21 21.6768 121.016 22.4104 120.627 22.9194C120.237 23.4434 119.616 23.8027 118.763 23.9973C117.909 24.1919 116.772 24.2892 115.349 24.2892C114.182 24.2892 113.216 24.2294 112.452 24.1096C111.704 24.0048 111.105 23.8251 110.656 23.5706C110.222 23.3161 109.915 22.9793 109.735 22.5601C109.57 22.1558 109.488 21.6468 109.488 21.033C109.488 20.5689 109.57 20.1722 109.735 19.8428C109.9 19.4985 110.177 19.1916 110.566 18.9221C110.97 18.6526 111.532 18.4056 112.25 18.181L113.89 17.5971L115.08 18.0687L114.182 18.6526C113.807 18.9221 113.5 19.1541 113.261 19.3488C113.036 19.5284 112.872 19.7081 112.767 19.8877C112.677 20.0674 112.632 20.3069 112.632 20.6063C112.632 20.9507 112.707 21.2127 112.857 21.3923C113.006 21.5869 113.276 21.7142 113.665 21.7741C114.069 21.8489 114.616 21.8864 115.304 21.8864C116.023 21.8864 116.584 21.8489 116.989 21.7741C117.393 21.7142 117.67 21.5944 117.82 21.4148C117.984 21.2351 118.067 20.9806 118.067 20.6512C118.067 20.3668 118.007 20.1572 117.887 20.0225C117.782 19.8877 117.595 19.7904 117.325 19.7305C117.071 19.6557 116.712 19.5883 116.248 19.5284L112.767 19.1466C112.183 19.0868 111.726 18.9296 111.397 18.6751C111.068 18.4205 110.835 18.1136 110.701 17.7543C110.581 17.38 110.551 17.0058 110.611 16.6315C110.671 16.2572 110.806 15.9204 111.015 15.6209C111.24 15.3215 111.524 15.1044 111.868 14.9697Z" fill="#1C1D22"/>
<circle cx="15" cy="15" r="15" fill="#888DA7"/>
<path d="M16.8285 6C16.9682 6 17.1042 6.0432 17.2171 6.12338C17.3299 6.20356 17.4138 6.31657 17.4565 6.44614L18.1821 8.64343C18.4869 8.78871 18.7784 8.952 19.0568 9.13586L21.3735 8.64986C21.5101 8.62144 21.6524 8.636 21.7799 8.69146C21.9075 8.74691 22.0137 8.84039 22.0832 8.95843L23.9118 12.0429C23.9816 12.1608 24.0112 12.2974 23.9962 12.4328C23.9813 12.5682 23.9226 12.6955 23.8286 12.7963L22.2389 14.5063C22.2621 14.8342 22.2621 15.1632 22.2389 15.4911L23.8286 17.2037C23.9226 17.3045 23.9813 17.4318 23.9962 17.5672C24.0112 17.7026 23.9816 17.8392 23.9118 17.9571L22.0832 21.0429C22.0135 21.1607 21.9072 21.2539 21.7797 21.3091C21.6521 21.3643 21.5099 21.3787 21.3735 21.3501L19.0568 20.8641C18.7797 21.0467 18.4869 21.2113 18.1834 21.3566L17.4565 23.5539C17.4138 23.6834 17.3299 23.7964 17.2171 23.8766C17.1042 23.9568 16.9682 24 16.8285 24H13.1715C13.0318 24 12.8958 23.9568 12.7829 23.8766C12.6701 23.7964 12.5862 23.6834 12.5435 23.5539L11.8192 21.3579C11.5153 21.213 11.2221 21.0476 10.9419 20.8629L8.62654 21.3501C8.48995 21.3786 8.34763 21.364 8.22007 21.3085C8.09252 21.2531 7.98632 21.1596 7.91677 21.0416L6.08824 17.9571C6.01842 17.8392 5.98884 17.7026 6.00378 17.5672C6.01872 17.4318 6.0774 17.3045 6.17136 17.2037L7.76109 15.4911C7.73806 15.1641 7.73806 14.8359 7.76109 14.5089L6.17136 12.7963C6.0774 12.6955 6.01872 12.5682 6.00378 12.4328C5.98884 12.2974 6.01842 12.1608 6.08824 12.0429L7.91677 8.95714C7.98651 8.83934 8.09279 8.74612 8.22033 8.69091C8.34787 8.63569 8.49009 8.62132 8.62654 8.64986L10.9419 9.13714C11.2216 8.95329 11.5145 8.78743 11.8192 8.64214L12.5448 6.44614C12.5874 6.31699 12.6708 6.20427 12.7832 6.12414C12.8955 6.044 13.0309 6.00055 13.1702 6H16.8272H16.8285ZM16.3457 7.28571H13.6543L12.905 9.55757L12.3997 9.798C12.1513 9.91646 11.9115 10.0513 11.682 10.2017L11.215 10.5103L8.81916 10.0063L7.47349 12.2794L9.116 14.0511L9.07642 14.5963C9.05746 14.8651 9.05746 15.1349 9.07642 15.4037L9.116 15.9489L7.47085 17.7206L8.81784 19.9937L11.2137 19.491L11.6807 19.7983C11.9102 19.9487 12.15 20.0835 12.3984 20.202L12.9037 20.4424L13.6543 22.7143H16.3483L17.1003 20.4411L17.6043 20.202C17.8524 20.0838 18.0918 19.9489 18.3206 19.7983L18.7863 19.491L21.1835 19.9937L22.5292 17.7206L20.8853 15.9489L20.9249 15.4037C20.9439 15.1345 20.9439 14.8643 20.9249 14.595L20.8853 14.0499L22.5305 12.2794L21.1835 10.0063L18.7863 10.5077L18.3206 10.2017C18.0918 10.051 17.8524 9.91615 17.6043 9.798L17.1003 9.55886L16.347 7.28571H16.3457ZM15 11.1429C16.0497 11.1429 17.0564 11.5492 17.7986 12.2726C18.5409 12.9959 18.9579 13.977 18.9579 15C18.9579 16.023 18.5409 17.0041 17.7986 17.7274C17.0564 18.4508 16.0497 18.8571 15 18.8571C13.9503 18.8571 12.9436 18.4508 12.2014 17.7274C11.4591 17.0041 11.0422 16.023 11.0422 15C11.0422 13.977 11.4591 12.9959 12.2014 12.2726C12.9436 11.5492 13.9503 11.1429 15 11.1429ZM15 12.4286C14.3002 12.4286 13.6291 12.6995 13.1343 13.1817C12.6394 13.664 12.3614 14.318 12.3614 15C12.3614 15.682 12.6394 16.336 13.1343 16.8183C13.6291 17.3005 14.3002 17.5714 15 17.5714C15.6998 17.5714 16.3709 17.3005 16.8657 16.8183C17.3606 16.336 17.6386 15.682 17.6386 15C17.6386 14.318 17.3606 13.664 16.8657 13.1817C16.3709 12.6995 15.6998 12.4286 15 12.4286Z" fill="white" stroke="white" stroke-width="0.5"/>
</svg>
