<svg width="118" height="28" viewBox="0 0 118 28" fill="none" xmlns="http://www.w3.org/2000/svg">
<path d="M31.425 22.175C30.9917 22.175 30.65 22.0583 30.4 21.825C30.1667 21.5917 30.05 21.25 30.05 20.8V5.775C30.05 5.325 30.1667 4.98333 30.4 4.75C30.65 4.5 31 4.375 31.45 4.375H40.35C40.7167 4.375 40.9833 4.46667 41.15 4.65C41.3333 4.81667 41.425 5.06667 41.425 5.4C41.425 5.75 41.3333 6.01667 41.15 6.2C40.9833 6.38333 40.7167 6.475 40.35 6.475H32.65V12.1H39.85C40.1833 12.1 40.4417 12.1917 40.625 12.375C40.825 12.5417 40.925 12.7917 40.925 13.125C40.925 13.475 40.825 13.7417 40.625 13.925C40.4417 14.1083 40.1833 14.2 39.85 14.2H32.65V20.8C32.65 21.7167 32.2417 22.175 31.425 22.175ZM48.4539 22.225C47.2206 22.225 46.1539 21.9667 45.2539 21.45C44.3706 20.9333 43.6789 20.2 43.1789 19.25C42.6789 18.3 42.4289 17.1833 42.4289 15.9C42.4289 14.9167 42.5706 14.0417 42.8539 13.275C43.1372 12.5083 43.5372 11.85 44.0539 11.3C44.5872 10.7333 45.2206 10.3083 45.9539 10.025C46.7039 9.725 47.5372 9.575 48.4539 9.575C49.6706 9.575 50.7206 9.83333 51.6039 10.35C52.5039 10.8667 53.2039 11.6 53.7039 12.55C54.2039 13.4833 54.4539 14.6 54.4539 15.9C54.4539 16.8667 54.3122 17.7417 54.0289 18.525C53.7456 19.3083 53.3372 19.975 52.8039 20.525C52.2872 21.075 51.6539 21.5 50.9039 21.8C50.1706 22.0833 49.3539 22.225 48.4539 22.225ZM48.4539 20.275C49.1372 20.275 49.7372 20.1083 50.2539 19.775C50.7706 19.4417 51.1706 18.95 51.4539 18.3C51.7539 17.65 51.9039 16.85 51.9039 15.9C51.9039 14.4667 51.5872 13.3833 50.9539 12.65C50.3206 11.9167 49.4872 11.55 48.4539 11.55C47.7539 11.55 47.1456 11.7167 46.6289 12.05C46.1122 12.3667 45.7039 12.85 45.4039 13.5C45.1206 14.15 44.9789 14.95 44.9789 15.9C44.9789 17.3167 45.2956 18.4 45.9289 19.15C46.5622 19.9 47.4039 20.275 48.4539 20.275ZM61.2146 22.225C59.9146 22.225 58.9313 21.85 58.2646 21.1C57.6146 20.3333 57.2896 19.2333 57.2896 17.8V5.475C57.2896 5.05833 57.398 4.74167 57.6146 4.525C57.8313 4.30833 58.1396 4.2 58.5396 4.2C58.9396 4.2 59.248 4.30833 59.4646 4.525C59.698 4.74167 59.8146 5.05833 59.8146 5.475V17.65C59.8146 18.4833 59.9813 19.1083 60.3146 19.525C60.6646 19.925 61.1646 20.125 61.8146 20.125C61.9646 20.125 62.098 20.125 62.2146 20.125C62.3313 20.1083 62.448 20.0917 62.5646 20.075C62.7646 20.0583 62.9063 20.1167 62.9896 20.25C63.073 20.3667 63.1146 20.6167 63.1146 21C63.1146 21.35 63.0396 21.625 62.8896 21.825C62.7396 22.0083 62.498 22.125 62.1646 22.175C62.0146 22.1917 61.8563 22.2 61.6896 22.2C61.523 22.2167 61.3646 22.225 61.2146 22.225ZM68.8563 22.225C67.5563 22.225 66.5729 21.85 65.9063 21.1C65.2563 20.3333 64.9313 19.2333 64.9313 17.8V5.475C64.9313 5.05833 65.0396 4.74167 65.2563 4.525C65.4729 4.30833 65.7813 4.2 66.1813 4.2C66.5813 4.2 66.8896 4.30833 67.1063 4.525C67.3396 4.74167 67.4563 5.05833 67.4563 5.475V17.65C67.4563 18.4833 67.6229 19.1083 67.9563 19.525C68.3063 19.925 68.8063 20.125 69.4563 20.125C69.6063 20.125 69.7396 20.125 69.8563 20.125C69.9729 20.1083 70.0896 20.0917 70.2063 20.075C70.4063 20.0583 70.5479 20.1167 70.6313 20.25C70.7146 20.3667 70.7563 20.6167 70.7563 21C70.7563 21.35 70.6813 21.625 70.5313 21.825C70.3813 22.0083 70.1396 22.125 69.8063 22.175C69.6563 22.1917 69.4979 22.2 69.3313 22.2C69.1646 22.2167 69.0063 22.225 68.8563 22.225ZM77.7508 22.225C76.5174 22.225 75.4508 21.9667 74.5508 21.45C73.6674 20.9333 72.9758 20.2 72.4758 19.25C71.9758 18.3 71.7258 17.1833 71.7258 15.9C71.7258 14.9167 71.8674 14.0417 72.1508 13.275C72.4341 12.5083 72.8341 11.85 73.3508 11.3C73.8841 10.7333 74.5174 10.3083 75.2508 10.025C76.0008 9.725 76.8341 9.575 77.7508 9.575C78.9674 9.575 80.0174 9.83333 80.9008 10.35C81.8008 10.8667 82.5008 11.6 83.0008 12.55C83.5008 13.4833 83.7508 14.6 83.7508 15.9C83.7508 16.8667 83.6091 17.7417 83.3258 18.525C83.0424 19.3083 82.6341 19.975 82.1008 20.525C81.5841 21.075 80.9508 21.5 80.2008 21.8C79.4674 22.0833 78.6508 22.225 77.7508 22.225ZM77.7508 20.275C78.4341 20.275 79.0341 20.1083 79.5508 19.775C80.0674 19.4417 80.4674 18.95 80.7508 18.3C81.0508 17.65 81.2008 16.85 81.2008 15.9C81.2008 14.4667 80.8841 13.3833 80.2508 12.65C79.6174 11.9167 78.7841 11.55 77.7508 11.55C77.0508 11.55 76.4424 11.7167 75.9258 12.05C75.4091 12.3667 75.0008 12.85 74.7008 13.5C74.4174 14.15 74.2758 14.95 74.2758 15.9C74.2758 17.3167 74.5924 18.4 75.2258 19.15C75.8591 19.9 76.7008 20.275 77.7508 20.275ZM90.8168 22.175C90.4668 22.175 90.1585 22.0917 89.8918 21.925C89.6418 21.7417 89.4418 21.4583 89.2918 21.075L85.6168 11.35C85.4835 11.0167 85.4418 10.725 85.4918 10.475C85.5418 10.2083 85.6668 10 85.8668 9.85C86.0835 9.7 86.3585 9.625 86.6918 9.625C86.9918 9.625 87.2335 9.7 87.4168 9.85C87.6168 9.98333 87.7835 10.25 87.9168 10.65L91.1918 19.875H90.5918L93.9918 10.55C94.1085 10.2333 94.2668 10 94.4668 9.85C94.6668 9.7 94.9251 9.625 95.2418 9.625C95.5585 9.625 95.8168 9.7 96.0168 9.85C96.2335 10 96.3918 10.2333 96.4918 10.55L99.8168 19.875H99.2668L102.592 10.6C102.725 10.2167 102.892 9.95833 103.092 9.825C103.308 9.69167 103.55 9.625 103.817 9.625C104.15 9.625 104.4 9.70833 104.567 9.875C104.75 10.0417 104.85 10.2583 104.867 10.525C104.9 10.775 104.858 11.05 104.742 11.35L101.067 21.075C100.917 21.4417 100.708 21.7167 100.442 21.9C100.192 22.0833 99.9001 22.175 99.5668 22.175C99.2168 22.175 98.9085 22.0833 98.6418 21.9C98.3918 21.7167 98.1918 21.4417 98.0418 21.075L94.5418 11.6H95.7918L92.3168 21.075C92.1835 21.4417 91.9835 21.7167 91.7168 21.9C91.4668 22.0833 91.1668 22.175 90.8168 22.175ZM111.54 22.225C110.807 22.225 110.049 22.1417 109.265 21.975C108.499 21.8083 107.79 21.525 107.14 21.125C106.924 20.975 106.774 20.8083 106.69 20.625C106.607 20.4417 106.574 20.2583 106.59 20.075C106.624 19.875 106.699 19.7083 106.815 19.575C106.949 19.425 107.107 19.3333 107.29 19.3C107.49 19.2667 107.699 19.3083 107.915 19.425C108.565 19.7917 109.19 20.05 109.79 20.2C110.39 20.3333 110.982 20.4 111.565 20.4C112.449 20.4 113.115 20.2417 113.565 19.925C114.015 19.6083 114.24 19.1833 114.24 18.65C114.24 18.2167 114.09 17.8833 113.79 17.65C113.49 17.4 113.04 17.2083 112.44 17.075L110.065 16.6C109.032 16.3833 108.249 16 107.715 15.45C107.182 14.9 106.915 14.2 106.915 13.35C106.915 12.5833 107.124 11.9167 107.54 11.35C107.957 10.7833 108.54 10.35 109.29 10.05C110.04 9.73333 110.907 9.575 111.89 9.575C112.624 9.575 113.315 9.66667 113.965 9.85C114.615 10.0333 115.215 10.3083 115.765 10.675C115.982 10.7917 116.124 10.95 116.19 11.15C116.257 11.3333 116.265 11.5167 116.215 11.7C116.182 11.8833 116.099 12.05 115.965 12.2C115.832 12.3333 115.665 12.4167 115.465 12.45C115.282 12.4667 115.074 12.4167 114.84 12.3C114.34 11.9833 113.84 11.7583 113.34 11.625C112.857 11.4917 112.374 11.425 111.89 11.425C111.007 11.425 110.34 11.5917 109.89 11.925C109.457 12.2417 109.24 12.675 109.24 13.225C109.24 13.6417 109.374 13.9833 109.64 14.25C109.907 14.5167 110.324 14.7083 110.89 14.825L113.265 15.3C114.349 15.5167 115.165 15.8833 115.715 16.4C116.282 16.9167 116.565 17.6167 116.565 18.5C116.565 19.65 116.107 20.5583 115.19 21.225C114.274 21.8917 113.057 22.225 111.54 22.225Z" fill="white"/>
<path d="M21 5.82873V20.1713C21.0001 20.2995 20.9703 20.426 20.9128 20.5408C20.8553 20.6556 20.7718 20.7556 20.6688 20.8329C20.5657 20.9101 20.4461 20.9626 20.3192 20.986C20.1923 21.0095 20.0616 21.0033 19.9375 20.9681L1.60417 15.6595C1.42995 15.61 1.27673 15.5054 1.16771 15.3616C1.05869 15.2178 0.999811 15.0427 1 14.8627V11.1373C0.999811 10.9573 1.05869 10.7822 1.16771 10.6384C1.27673 10.4946 1.42995 10.39 1.60417 10.3405L19.9375 5.03192C20.0616 4.99666 20.1923 4.99051 20.3192 5.01398C20.4461 5.03744 20.5657 5.08987 20.6688 5.16713C20.7718 5.24439 20.8553 5.34436 20.9128 5.45918C20.9703 5.57399 21.0001 5.7005 21 5.82873Z" stroke="white" stroke-width="1.5" stroke-linecap="round" stroke-linejoin="round"/>
<path d="M5 16.5598V20.1981C5 20.4108 5.0878 20.6148 5.24408 20.7651C5.40036 20.9155 5.61232 21 5.83333 21H9.16667C9.38768 21 9.59964 20.9155 9.75592 20.7651C9.9122 20.6148 10 20.4108 10 20.1981V8" stroke="white" stroke-width="1.5" stroke-linecap="round" stroke-linejoin="round"/>
</svg>
