<svg width="19" height="20" viewBox="0 0 19 20" fill="none" xmlns="http://www.w3.org/2000/svg">
<circle cx="9.5" cy="10" r="9.5" fill="#00ACFF"/>
<path fill-rule="evenodd" clip-rule="evenodd" d="M14.2503 14.75H12.3287V11.3875C12.3287 10.4652 11.9218 9.95054 11.192 9.95054C10.3979 9.95054 9.92662 10.4868 9.92662 11.3875V14.75H8.00497V8.50461H9.92662V9.20693C9.92662 9.20693 10.5295 8.14899 11.8881 8.14899C13.2472 8.14899 14.2503 8.97835 14.2503 10.6944V14.75ZM5.81526 7.50578C5.16718 7.50578 4.64209 6.9764 4.64209 6.32352C4.64209 5.67112 5.16718 5.14172 5.81526 5.14172C6.46285 5.14172 6.98794 5.67112 6.98794 6.32352C6.98842 6.9764 6.46285 7.50578 5.81526 7.50578ZM4.64209 14.75H7.04415V8.50461H4.64209V14.75Z" fill="white"/>
</svg>
