<svg width="19" height="20" viewBox="0 0 19 20" fill="none" xmlns="http://www.w3.org/2000/svg">
<circle cx="9.5" cy="10" r="9.5" fill="#00ACFF"/>
<path fill-rule="evenodd" clip-rule="evenodd" d="M7.01607 4.13471C6.05826 4.17793 5.22808 4.4121 4.55774 5.07962C3.88505 5.75064 3.65378 6.58411 3.61046 7.53195C3.58353 8.12356 3.42605 12.593 3.8827 13.7651C4.19065 14.5558 4.79717 15.1638 5.59515 15.4727C5.9675 15.6176 6.39256 15.7156 7.01607 15.7442C12.2296 15.9802 14.1622 15.8517 14.9771 13.7651C15.1217 13.3936 15.2212 12.969 15.2488 12.347C15.487 7.12012 15.2101 5.98717 14.3015 5.07962C13.5808 4.3607 12.7331 3.87132 7.01607 4.13471ZM7.06406 14.693C6.49324 14.6673 6.18354 14.5722 5.97687 14.4922C5.45699 14.2901 5.06649 13.9013 4.86568 13.3844C4.51792 12.4938 4.63326 8.26382 4.66429 7.57936C4.69473 6.90891 4.83055 6.29618 5.3036 5.82313C5.88906 5.23912 6.64546 4.9529 11.7957 5.18534C12.4678 5.21571 13.082 5.35126 13.5562 5.82313C14.1417 6.40714 14.4321 7.16936 14.1955 12.2999C14.1698 12.8693 14.0743 13.1783 13.9941 13.3844C13.4643 14.7422 12.2454 14.9307 7.06406 14.693ZM11.8525 6.82177C11.8525 7.20838 12.1669 7.52276 12.5551 7.52276C12.9432 7.52276 13.2582 7.20838 13.2582 6.82177C13.2582 6.43516 12.9432 6.12106 12.5551 6.12106C12.1669 6.12106 11.8525 6.43516 11.8525 6.82177ZM6.42358 9.93919C6.42358 11.5954 7.76955 12.9382 9.42991 12.9382C11.0903 12.9382 12.4362 11.5954 12.4362 9.93919C12.4362 8.28294 11.0903 6.94099 9.42991 6.94099C7.76955 6.94099 6.42358 8.28294 6.42358 9.93919ZM7.47857 9.93919C7.47857 8.86462 8.35208 7.99277 9.42991 7.99277C10.5077 7.99277 11.3812 8.86462 11.3812 9.93919C11.3812 11.0143 10.5077 11.8865 9.42991 11.8865C8.35208 11.8865 7.47857 11.0143 7.47857 9.93919Z" fill="white"/>
</svg>
