<svg width="21" height="21" viewBox="0 0 21 21" fill="none" xmlns="http://www.w3.org/2000/svg">
<g opacity="0.5">
<path d="M1.71033 5.53777C1.71033 4.60758 2.46439 3.85352 3.39458 3.85352H16.8686C17.7988 3.85352 18.5529 4.60758 18.5529 5.53777V14.8012C18.5529 15.7314 17.7988 16.4854 16.8686 16.4854H13.0068L10.7271 18.7652C10.3982 19.094 9.865 19.094 9.53613 18.7652L7.2564 16.4854H3.39458C2.46439 16.4854 1.71033 15.7314 1.71033 14.8012V5.53777ZM16.8686 5.53777H3.39458V14.8012H7.60522C7.82857 14.8012 8.04277 14.8899 8.2007 15.0478L10.1316 16.9787L12.0625 15.0478C12.2204 14.8899 12.4346 14.8012 12.658 14.8012H16.8686V5.53777ZM5.07884 8.48522C5.07884 8.02013 5.45587 7.64309 5.92097 7.64309H14.3422C14.8073 7.64309 15.1844 8.02013 15.1844 8.48522C15.1844 8.95031 14.8073 9.32735 14.3422 9.32735H5.92097C5.45587 9.32735 5.07884 8.95031 5.07884 8.48522ZM5.07884 11.8537C5.07884 11.3886 5.45587 11.0116 5.92097 11.0116H10.9737C11.4388 11.0116 11.8159 11.3886 11.8159 11.8537C11.8159 12.3188 11.4388 12.6959 10.9737 12.6959H5.92097C5.45587 12.6959 5.07884 12.3188 5.07884 11.8537Z" fill="#1C1D22"/>
</g>
</svg>
