<svg width="315" height="35" viewBox="0 0 315 35" fill="none" xmlns="http://www.w3.org/2000/svg">
<rect x="0.353027" y="29.7988" width="314.394" height="4.49135" rx="2.24567" fill="#1C1D22" fill-opacity="0.08"/>
<rect x="0.353027" y="29.7988" width="220.076" height="4.49135" rx="2.24567" fill="#00ACFF"/>
<path d="M287.973 4.88191C288.214 4.88191 288.413 4.9343 288.57 5.0391C288.727 5.13342 288.827 5.26442 288.869 5.4321C288.921 5.59977 288.911 5.79889 288.837 6.02945L285.489 15.7285H283.555L286.448 7.4285C286.5 7.2713 286.558 7.11411 286.621 6.95691C286.684 6.79971 286.762 6.64776 286.857 6.50104H281.685L281.606 4.88191H287.973ZM297.381 4.88191L291.203 16.8289H289.678L295.856 4.88191H297.381ZM302.742 4.88191V15.7285H300.777V7.64858C300.777 7.47042 300.783 7.29226 300.793 7.11411C300.814 6.93595 300.84 6.75779 300.872 6.57964L298.262 7.30274L298.011 5.98229L300.777 4.88191H302.742ZM309.187 4.67755C310.183 4.67755 310.969 4.86619 311.545 5.24346C312.132 5.61025 312.551 6.2076 312.803 7.03551C313.065 7.86341 313.196 8.95331 313.196 10.3052C313.196 11.6571 313.065 12.747 312.803 13.5749C312.551 14.4028 312.132 15.0054 311.545 15.3827C310.969 15.7495 310.183 15.9329 309.187 15.9329C308.202 15.9329 307.416 15.7495 306.829 15.3827C306.253 15.0054 305.834 14.4028 305.572 13.5749C305.32 12.747 305.194 11.6571 305.194 10.3052C305.194 8.95331 305.32 7.86341 305.572 7.03551C305.834 6.2076 306.253 5.61025 306.829 5.24346C307.416 4.86619 308.202 4.67755 309.187 4.67755ZM309.187 6.26524C308.789 6.26524 308.459 6.33336 308.197 6.4696C307.935 6.60584 307.725 6.82591 307.568 7.12983C307.411 7.43374 307.301 7.84769 307.238 8.37168C307.175 8.8852 307.143 9.5297 307.143 10.3052C307.143 11.0702 307.175 11.7147 307.238 12.2387C307.301 12.7627 307.411 13.1767 307.568 13.4806C307.725 13.7845 307.935 14.0046 308.197 14.1408C308.459 14.2771 308.789 14.3452 309.187 14.3452C309.575 14.3452 309.905 14.2771 310.177 14.1408C310.45 14.0046 310.665 13.7845 310.822 13.4806C310.979 13.1767 311.089 12.7627 311.152 12.2387C311.215 11.7147 311.246 11.0702 311.246 10.3052C311.246 9.5297 311.215 8.8852 311.152 8.37168C311.089 7.84769 310.979 7.43374 310.822 7.12983C310.665 6.82591 310.45 6.60584 310.177 6.4696C309.905 6.33336 309.575 6.26524 309.187 6.26524Z" fill="#1C1D22"/>
<path d="M27.9973 4.74043C28.951 4.74043 29.7003 4.84523 30.2452 5.05482C30.7902 5.25394 31.1779 5.60501 31.4085 6.10804C31.6495 6.6006 31.7701 7.30274 31.7701 8.21449C31.7701 9.12623 31.6548 9.83362 31.4242 10.3367C31.2041 10.8397 30.8321 11.1908 30.3081 11.3899C29.7946 11.589 29.1082 11.6885 28.2488 11.6885C27.7772 11.6885 27.3214 11.6728 26.8812 11.6414C26.4516 11.6099 26.0481 11.568 25.6708 11.5156C25.304 11.4632 24.9896 11.4108 24.7276 11.3584C24.4656 11.2956 24.2822 11.2432 24.1774 11.2012L24.2246 10.148C24.8219 10.148 25.435 10.148 26.0638 10.148C26.7031 10.148 27.3371 10.148 27.9659 10.148C28.427 10.1375 28.7885 10.0799 29.0505 9.9751C29.323 9.8703 29.5117 9.68166 29.6165 9.40919C29.7317 9.12623 29.7894 8.728 29.7894 8.21449C29.7894 7.70098 29.7317 7.30798 29.6165 7.03551C29.5117 6.75255 29.323 6.55868 29.0505 6.45388C28.7885 6.3386 28.427 6.28096 27.9659 6.28096C27.0437 6.28096 26.2524 6.2862 25.5922 6.29668C24.932 6.30716 24.4813 6.32288 24.2403 6.34384L24.0202 4.88191C24.4394 4.83999 24.8324 4.80855 25.1992 4.78759C25.5765 4.76663 25.98 4.75615 26.4096 4.75615C26.8498 4.74567 27.379 4.74043 27.9973 4.74043ZM25.9852 4.88191V15.7285H24.0202V4.88191H25.9852ZM34.8896 8.01013L35.1411 9.51922L35.314 9.7393V15.7285H33.4119V8.01013H34.8896ZM38.6623 7.82149L38.4737 9.5821H37.9235C37.5148 9.5821 37.1008 9.65022 36.6816 9.78646C36.2624 9.9227 35.7384 10.1271 35.1096 10.3995L34.9839 9.28343C35.5288 8.82232 36.0843 8.466 36.6502 8.21449C37.2161 7.95249 37.761 7.82149 38.285 7.82149H38.6623ZM43.2878 7.82149C44.231 7.82149 44.9803 7.95249 45.5357 8.21449C46.1017 8.47648 46.5051 8.90616 46.7462 9.5035C46.9977 10.1009 47.1234 10.8921 47.1234 11.8772C47.1234 12.8623 46.9977 13.6535 46.7462 14.2509C46.5051 14.8377 46.1017 15.2674 45.5357 15.5399C44.9803 15.8019 44.231 15.9329 43.2878 15.9329C42.3656 15.9329 41.6215 15.8019 41.0556 15.5399C40.5002 15.2674 40.0967 14.8377 39.8452 14.2509C39.5937 13.6535 39.4679 12.8623 39.4679 11.8772C39.4679 10.8921 39.5937 10.1009 39.8452 9.5035C40.0967 8.90616 40.5002 8.47648 41.0556 8.21449C41.6215 7.95249 42.3656 7.82149 43.2878 7.82149ZM43.2878 9.26771C42.8267 9.26771 42.4599 9.34631 42.1874 9.5035C41.9254 9.65022 41.7368 9.91222 41.6215 10.2895C41.5063 10.6668 41.4486 11.196 41.4486 11.8772C41.4486 12.5584 41.5063 13.0876 41.6215 13.4649C41.7368 13.8421 41.9254 14.1041 42.1874 14.2509C42.4599 14.3976 42.8267 14.4709 43.2878 14.4709C43.7594 14.4709 44.1315 14.3976 44.4039 14.2509C44.6764 14.1041 44.865 13.8421 44.9698 13.4649C45.0851 13.0876 45.1428 12.5584 45.1428 11.8772C45.1428 11.196 45.0851 10.6668 44.9698 10.2895C44.865 9.91222 44.6764 9.65022 44.4039 9.5035C44.1315 9.34631 43.7594 9.26771 43.2878 9.26771ZM52.1864 7.82149C53.0562 7.82149 53.7427 7.90533 54.2457 8.07301C54.7592 8.23021 55.126 8.4922 55.3461 8.859C55.5662 9.21531 55.6762 9.6869 55.6762 10.2738C55.6762 10.8397 55.5662 11.306 55.3461 11.6728C55.126 12.0291 54.7592 12.2911 54.2457 12.4588C53.7322 12.6265 53.0405 12.7103 52.1707 12.7103C51.3009 12.7103 50.6092 12.6265 50.0957 12.4588C49.5927 12.2911 49.2259 12.0291 48.9953 11.6728C48.7752 11.3165 48.6652 10.8502 48.6652 10.2738C48.6652 9.6869 48.7752 9.21531 48.9953 8.859C49.2259 8.4922 49.5979 8.23021 50.1114 8.07301C50.6249 7.90533 51.3166 7.82149 52.1864 7.82149ZM52.1707 9.06335C51.5105 9.06335 51.0546 9.15243 50.8031 9.33059C50.5516 9.50874 50.4258 9.82314 50.4258 10.2738C50.4258 10.7034 50.5516 11.0126 50.8031 11.2012C51.0546 11.3794 51.5105 11.4685 52.1707 11.4685C52.8309 11.4685 53.2816 11.3794 53.5226 11.2012C53.7741 11.0126 53.8999 10.7034 53.8999 10.2738C53.8999 9.82314 53.7741 9.50874 53.5226 9.33059C53.2816 9.15243 52.8309 9.06335 52.1707 9.06335ZM56.5722 8.01013L56.4622 8.89044L54.4501 9.11051L53.8841 8.01013H56.5722ZM49.9228 12.2387L50.8974 12.3802C50.7402 12.506 50.6302 12.6684 50.5673 12.8675C50.5149 13.0562 50.5306 13.2396 50.6144 13.4177C50.7088 13.5854 50.9079 13.6902 51.2118 13.7321L54.0728 14.1094C54.8483 14.2037 55.3932 14.4343 55.7076 14.8011C56.022 15.1574 56.1792 15.6761 56.1792 16.3573C56.1792 16.9966 56.0535 17.4944 55.802 17.8507C55.5504 18.207 55.1365 18.4533 54.5601 18.5895C53.9942 18.7362 53.2292 18.8096 52.265 18.8096C51.5 18.8096 50.866 18.7677 50.3629 18.6838C49.8599 18.6105 49.4564 18.4795 49.1525 18.2908C48.8591 18.1127 48.6495 17.8769 48.5237 17.5834C48.398 17.3005 48.3351 16.9442 48.3351 16.5145C48.3351 16.1791 48.3875 15.8962 48.4923 15.6656C48.6076 15.4351 48.791 15.2307 49.0425 15.0526C49.294 14.8639 49.6346 14.691 50.0643 14.5338L51.1332 14.0779L51.872 14.3452L51.1804 14.8325C50.9393 15.0106 50.7402 15.1731 50.583 15.3198C50.4363 15.456 50.3262 15.5923 50.2529 15.7285C50.19 15.8752 50.1586 16.0586 50.1586 16.2787C50.1586 16.5721 50.2162 16.7975 50.3315 16.9547C50.4572 17.1119 50.6721 17.2166 50.976 17.269C51.2799 17.3319 51.7043 17.3634 52.2493 17.3634C52.8047 17.3634 53.2344 17.3319 53.5383 17.269C53.8422 17.2166 54.0518 17.1119 54.1671 16.9547C54.2929 16.8079 54.3557 16.5931 54.3557 16.3101C54.3557 16.0796 54.3191 15.9067 54.2457 15.7914C54.1723 15.6866 54.0413 15.6028 53.8527 15.5399C53.6641 15.477 53.4021 15.4246 53.0667 15.3827L50.4887 15.0683C50.1219 15.0264 49.8285 14.9216 49.6084 14.7539C49.3988 14.5757 49.2521 14.3661 49.1682 14.1251C49.0844 13.8736 49.0582 13.6273 49.0896 13.3863C49.1316 13.1348 49.2206 12.9042 49.3569 12.6946C49.5036 12.485 49.6922 12.3331 49.9228 12.2387ZM59.3749 8.01013L59.6264 9.51922L59.7993 9.7393V15.7285H57.8972V8.01013H59.3749ZM63.1476 7.82149L62.959 9.5821H62.4088C62.0001 9.5821 61.5861 9.65022 61.1669 9.78646C60.7477 9.9227 60.2237 10.1271 59.5949 10.3995L59.4692 9.28343C60.0141 8.82232 60.5696 8.466 61.1355 8.21449C61.7014 7.95249 62.2463 7.82149 62.7703 7.82149H63.1476ZM67.726 7.82149C68.9731 7.82149 69.8691 8.04157 70.4141 8.48172C70.959 8.9114 71.2367 9.55066 71.2472 10.3995C71.2577 11.1017 71.09 11.6361 70.7442 12.0029C70.4088 12.3593 69.8481 12.5374 69.0622 12.5374H64.6606V11.3584H68.5434C68.8997 11.3584 69.125 11.2641 69.2194 11.0755C69.3241 10.8868 69.3765 10.6563 69.3765 10.3838C69.3661 9.95414 69.2403 9.65546 68.9993 9.48779C68.7687 9.32011 68.3705 9.23627 67.8046 9.23627C67.312 9.23627 66.9295 9.30439 66.657 9.44063C66.3846 9.57686 66.1907 9.82314 66.0754 10.1795C65.9706 10.5358 65.9182 11.0493 65.9182 11.72C65.9182 12.4326 65.9863 12.9828 66.1226 13.3706C66.2588 13.7583 66.4841 14.0255 66.7985 14.1723C67.1129 14.3085 67.5321 14.3766 68.0561 14.3766C68.4438 14.3766 68.8892 14.3609 69.3923 14.3295C69.9058 14.298 70.3983 14.2561 70.8699 14.2037L71.0586 15.4141C70.7756 15.5294 70.4507 15.6237 70.0839 15.6971C69.7171 15.7704 69.3346 15.8228 68.9364 15.8543C68.5486 15.8962 68.1818 15.9172 67.836 15.9172C66.8928 15.9172 66.133 15.7809 65.5567 15.5084C64.9907 15.2255 64.5768 14.7853 64.3148 14.188C64.0633 13.5906 63.9375 12.8204 63.9375 11.8772C63.9375 10.8606 64.0633 10.0589 64.3148 9.47207C64.5768 8.87472 64.9855 8.45028 65.5409 8.19877C66.1068 7.94725 66.8352 7.82149 67.726 7.82149ZM75.7392 7.82149C76.0955 7.82149 76.4781 7.83197 76.8868 7.85293C77.306 7.87389 77.7147 7.90533 78.1129 7.94725C78.5111 7.97869 78.8675 8.02585 79.1818 8.08873L79.0561 9.33059C78.5531 9.32011 78.05 9.30963 77.547 9.29915C77.0544 9.27819 76.5671 9.26771 76.0851 9.26771C75.6554 9.26771 75.3148 9.27819 75.0633 9.29915C74.8222 9.32011 74.6493 9.38299 74.5445 9.48779C74.4502 9.59258 74.4031 9.77074 74.4031 10.0223C74.4031 10.3262 74.4869 10.5305 74.6546 10.6353C74.8222 10.7296 75.0947 10.824 75.472 10.9183L77.5784 11.4056C78.2072 11.5628 78.6736 11.8038 78.9775 12.1287C79.2814 12.4431 79.4334 12.9304 79.4334 13.5906C79.4334 14.2299 79.3128 14.7172 79.0718 15.0526C78.8413 15.3774 78.4692 15.6028 77.9557 15.7285C77.4527 15.8438 76.8082 15.9014 76.0222 15.9014C75.7183 15.9014 75.2676 15.8857 74.6703 15.8543C74.0729 15.8333 73.418 15.7652 72.7053 15.6499L72.8311 14.4081C73.0407 14.4081 73.287 14.4133 73.5699 14.4238C73.8633 14.4343 74.1725 14.4395 74.4974 14.4395C74.8327 14.4395 75.1733 14.4395 75.5192 14.4395C76.0746 14.4395 76.499 14.4238 76.7925 14.3923C77.0964 14.3504 77.306 14.2718 77.4212 14.1565C77.5365 14.0308 77.5942 13.8526 77.5942 13.6221C77.5942 13.3286 77.4946 13.1348 77.2955 13.0404C77.1068 12.9356 76.8239 12.8361 76.4466 12.7418L74.3873 12.2387C73.9157 12.113 73.5489 11.9558 73.287 11.7671C73.025 11.568 72.8363 11.327 72.721 11.044C72.6058 10.7506 72.5481 10.3943 72.5481 9.9751C72.5481 9.40919 72.6529 8.96903 72.8625 8.65464C73.0826 8.34025 73.4232 8.12017 73.8843 7.99441C74.3559 7.86865 74.9742 7.81101 75.7392 7.82149ZM83.9368 7.82149C84.2931 7.82149 84.6756 7.83197 85.0844 7.85293C85.5036 7.87389 85.9123 7.90533 86.3105 7.94725C86.7087 7.97869 87.065 8.02585 87.3794 8.08873L87.2537 9.33059C86.7507 9.32011 86.2476 9.30963 85.7446 9.29915C85.252 9.27819 84.7647 9.26771 84.2827 9.26771C83.853 9.26771 83.5124 9.27819 83.2609 9.29915C83.0198 9.32011 82.8469 9.38299 82.7421 9.48779C82.6478 9.59258 82.6006 9.77074 82.6006 10.0223C82.6006 10.3262 82.6845 10.5305 82.8522 10.6353C83.0198 10.7296 83.2923 10.824 83.6696 10.9183L85.776 11.4056C86.4048 11.5628 86.8712 11.8038 87.1751 12.1287C87.479 12.4431 87.631 12.9304 87.631 13.5906C87.631 14.2299 87.5104 14.7172 87.2694 15.0526C87.0388 15.3774 86.6668 15.6028 86.1533 15.7285C85.6503 15.8438 85.0058 15.9014 84.2198 15.9014C83.9159 15.9014 83.4652 15.8857 82.8679 15.8543C82.2705 15.8333 81.6155 15.7652 80.9029 15.6499L81.0287 14.4081C81.2383 14.4081 81.4845 14.4133 81.7675 14.4238C82.0609 14.4343 82.3701 14.4395 82.695 14.4395C83.0303 14.4395 83.3709 14.4395 83.7167 14.4395C84.2722 14.4395 84.6966 14.4238 84.99 14.3923C85.294 14.3504 85.5036 14.2718 85.6188 14.1565C85.7341 14.0308 85.7917 13.8526 85.7917 13.6221C85.7917 13.3286 85.6922 13.1348 85.4931 13.0404C85.3044 12.9356 85.0215 12.8361 84.6442 12.7418L82.5849 12.2387C82.1133 12.113 81.7465 11.9558 81.4845 11.7671C81.2225 11.568 81.0339 11.327 80.9186 11.044C80.8034 10.7506 80.7457 10.3943 80.7457 9.9751C80.7457 9.40919 80.8505 8.96903 81.0601 8.65464C81.2802 8.34025 81.6208 8.12017 82.0819 7.99441C82.5535 7.86865 83.1718 7.81101 83.9368 7.82149Z" fill="#1C1D22" fill-opacity="0.5"/>
<g opacity="0.5">
<path d="M3.34717 5.84524C3.34717 5.43182 3.68231 5.09668 4.09573 5.09668H4.84428C5.2577 5.09668 5.59284 5.43182 5.59284 5.84524C5.59284 6.25866 5.2577 6.5938 4.84428 6.5938H4.09573C3.68231 6.5938 3.34717 6.25866 3.34717 5.84524ZM7.08996 5.84524C7.08996 5.43182 7.4251 5.09668 7.83852 5.09668H14.5755C14.989 5.09668 15.3241 5.43182 15.3241 5.84524C15.3241 6.25866 14.989 6.5938 14.5755 6.5938H7.83852C7.4251 6.5938 7.08996 6.25866 7.08996 5.84524ZM3.34717 9.58803C3.34717 9.17461 3.68231 8.83947 4.09573 8.83947H4.84428C5.2577 8.83947 5.59284 9.17461 5.59284 9.58803C5.59284 10.0014 5.2577 10.3366 4.84428 10.3366H4.09573C3.68231 10.3366 3.34717 10.0014 3.34717 9.58803ZM7.08996 9.58803C7.08996 9.17461 7.4251 8.83947 7.83852 8.83947H14.5755C14.989 8.83947 15.3241 9.17461 15.3241 9.58803C15.3241 10.0014 14.989 10.3366 14.5755 10.3366H7.83852C7.4251 10.3366 7.08996 10.0014 7.08996 9.58803ZM3.34717 13.3308C3.34717 12.9174 3.68231 12.5823 4.09573 12.5823H4.84428C5.2577 12.5823 5.59284 12.9174 5.59284 13.3308C5.59284 13.7442 5.2577 14.0794 4.84428 14.0794H4.09573C3.68231 14.0794 3.34717 13.7442 3.34717 13.3308ZM7.08996 13.3308C7.08996 12.9174 7.4251 12.5823 7.83852 12.5823H14.5755C14.989 12.5823 15.3241 12.9174 15.3241 13.3308C15.3241 13.7442 14.989 14.0794 14.5755 14.0794H7.83852C7.4251 14.0794 7.08996 13.7442 7.08996 13.3308Z" fill="#1C1D22"/>
</g>
</svg>
