<svg width="24" height="24" viewBox="0 0 24 24" fill="none" xmlns="http://www.w3.org/2000/svg">
<path d="M14.2349 1C14.4056 1.00001 14.5718 1.05281 14.7098 1.1508C14.8477 1.24879 14.9502 1.38692 15.0024 1.54529L15.8892 4.23086C16.2617 4.40843 16.6181 4.608 16.9583 4.83271L19.7898 4.23871C19.9567 4.20398 20.1307 4.22178 20.2866 4.28956C20.4425 4.35733 20.5723 4.47159 20.6573 4.61586L22.8922 8.38571C22.9775 8.5299 23.0136 8.69678 22.9954 8.86228C22.9771 9.02778 22.9054 9.18336 22.7906 9.30657L20.8476 11.3966C20.8758 11.7973 20.8758 12.1995 20.8476 12.6003L22.7906 14.6934C22.9054 14.8166 22.9771 14.9722 22.9954 15.1377C23.0136 15.3032 22.9775 15.4701 22.8922 15.6143L20.6573 19.3857C20.572 19.5297 20.4421 19.6436 20.2863 19.7111C20.1304 19.7786 19.9566 19.7962 19.7898 19.7613L16.9583 19.1673C16.6197 19.3904 16.2617 19.5916 15.8909 19.7691L15.0024 22.4547C14.9502 22.6131 14.8477 22.7512 14.7098 22.8492C14.5718 22.9472 14.4056 23 14.2349 23H9.76513C9.59444 23 9.42816 22.9472 9.29023 22.8492C9.15229 22.7512 9.04984 22.6131 8.9976 22.4547L8.11237 19.7707C7.74089 19.5937 7.38258 19.3915 7.04008 19.1657L4.21022 19.7613C4.04327 19.796 3.86932 19.7782 3.71342 19.7104C3.55752 19.6427 3.42772 19.5284 3.34272 19.3841L1.10785 15.6143C1.02251 15.4701 0.986363 15.3032 1.00462 15.1377C1.02288 14.9722 1.0946 14.8166 1.20943 14.6934L3.15245 12.6003C3.1243 12.2006 3.1243 11.7994 3.15245 11.3997L1.20943 9.30657C1.0946 9.18336 1.02288 9.02778 1.00462 8.86228C0.986363 8.69678 1.02251 8.5299 1.10785 8.38571L3.34272 4.61429C3.42796 4.4703 3.55786 4.35637 3.71374 4.28889C3.86962 4.2214 4.04345 4.20384 4.21022 4.23871L7.04008 4.83429C7.38192 4.60957 7.73989 4.40686 8.11237 4.22929L8.99922 1.54529C9.05128 1.38743 9.15325 1.24967 9.29054 1.15172C9.42782 1.05378 9.59338 1.00067 9.76352 1H14.2333H14.2349ZM13.6447 2.57143H10.3553L9.43942 5.34814L8.82185 5.642C8.51825 5.78679 8.22517 5.95165 7.94467 6.13543L7.37386 6.51257L4.44564 5.89657L2.80093 8.67486L4.80844 10.8403L4.76007 11.5066C4.7369 11.8351 4.7369 12.1649 4.76007 12.4934L4.80844 13.1597L2.79771 15.3251L4.44402 18.1034L7.37225 17.489L7.94306 17.8646C8.22356 18.0484 8.51664 18.2132 8.82023 18.358L9.4378 18.6519L10.3553 21.4286H13.6479L14.567 18.6503L15.183 18.358C15.4863 18.2136 15.7788 18.0487 16.0586 17.8646L16.6278 17.489L19.5576 18.1034L21.2023 15.3251L19.1932 13.1597L19.2415 12.4934C19.2648 12.1643 19.2648 11.8341 19.2415 11.505L19.1932 10.8387L21.2039 8.67486L19.5576 5.89657L16.6278 6.50943L16.0586 6.13543C15.7789 5.95128 15.4863 5.7864 15.183 5.642L14.567 5.34971L13.6463 2.57143H13.6447ZM12 7.28571C13.283 7.28571 14.5134 7.7824 15.4205 8.6665C16.3277 9.5506 16.8374 10.7497 16.8374 12C16.8374 13.2503 16.3277 14.4494 15.4205 15.3335C14.5134 16.2176 13.283 16.7143 12 16.7143C10.717 16.7143 9.48664 16.2176 8.57946 15.3335C7.67228 14.4494 7.16263 13.2503 7.16263 12C7.16263 10.7497 7.67228 9.5506 8.57946 8.6665C9.48664 7.7824 10.717 7.28571 12 7.28571ZM12 8.85714C11.1447 8.85714 10.3244 9.18826 9.71964 9.77766C9.11485 10.3671 8.77509 11.1665 8.77509 12C8.77509 12.8335 9.11485 13.6329 9.71964 14.2223C10.3244 14.8117 11.1447 15.1429 12 15.1429C12.8553 15.1429 13.6756 14.8117 14.2804 14.2223C14.8851 13.6329 15.2249 12.8335 15.2249 12C15.2249 11.1665 14.8851 10.3671 14.2804 9.77766C13.6756 9.18826 12.8553 8.85714 12 8.85714Z" fill="#1C1D22" stroke="#1C1D22" stroke-width="0.5"/>
</svg>
