<svg width="159" height="32" viewBox="0 0 159 32" fill="none" xmlns="http://www.w3.org/2000/svg">
<path d="M78.4649 3.3665C78.7643 2.44519 80.0677 2.44519 80.3671 3.3665L82.685 10.5005C82.8189 10.9126 83.2029 11.1915 83.6361 11.1915H91.1373C92.106 11.1915 92.5088 12.4311 91.7251 13.0005L85.6565 17.4096C85.306 17.6643 85.1593 18.1156 85.2932 18.5276L87.6112 25.6617C87.9106 26.583 86.8561 27.3491 86.0724 26.7797L80.0038 22.3706C79.6533 22.116 79.1787 22.116 78.8282 22.3706L72.7596 26.7797C71.9759 27.3491 70.9215 26.583 71.2208 25.6617L73.5388 18.5276C73.6727 18.1156 73.526 17.6643 73.1755 17.4096L67.107 13.0005C66.3232 12.4311 66.726 11.1915 67.6947 11.1915H75.1959C75.6291 11.1915 76.0131 10.9126 76.147 10.5005L78.4649 3.3665Z" fill="#FFB545"/>
<path d="M46.5372 3.3665C46.8366 2.44519 48.14 2.44519 48.4393 3.3665L50.7573 10.5005C50.8912 10.9126 51.2751 11.1915 51.7084 11.1915H59.2095C60.1783 11.1915 60.581 12.4311 59.7973 13.0005L53.7288 17.4096C53.3783 17.6643 53.2316 18.1156 53.3655 18.5276L55.6835 25.6617C55.9828 26.583 54.9283 27.3491 54.1446 26.7797L48.0761 22.3706C47.7256 22.116 47.251 22.116 46.9005 22.3706L40.8319 26.7797C40.0482 27.3491 38.9937 26.583 39.2931 25.6617L41.6111 18.5276C41.7449 18.1156 41.5983 17.6643 41.2478 17.4096L35.1792 13.0005C34.3955 12.4311 34.7983 11.1915 35.767 11.1915H43.2682C43.7014 11.1915 44.0854 10.9126 44.2192 10.5005L46.5372 3.3665Z" fill="#FFB545"/>
<path d="M110.393 3.3665C110.692 2.44519 111.996 2.44519 112.295 3.3665L114.613 10.5005C114.747 10.9126 115.131 11.1915 115.564 11.1915H123.065C124.034 11.1915 124.437 12.4311 123.653 13.0005L117.584 17.4096C117.234 17.6643 117.087 18.1156 117.221 18.5276L119.539 25.6617C119.839 26.583 118.784 27.3491 118 26.7797L111.932 22.3706C111.581 22.116 111.107 22.116 110.756 22.3706L104.688 26.7797C103.904 27.3491 102.849 26.583 103.149 25.6617L105.467 18.5276C105.601 18.1156 105.454 17.6643 105.104 17.4096L99.0349 13.0005C98.2512 12.4311 98.654 11.1915 99.6227 11.1915H107.124C107.557 11.1915 107.941 10.9126 108.075 10.5005L110.393 3.3665Z" fill="#FFB545"/>
<path d="M14.6095 3.3665C14.9088 2.44519 16.2122 2.44519 16.5116 3.3665L18.8296 10.5005C18.9635 10.9126 19.3474 11.1915 19.7806 11.1915H27.2818C28.2505 11.1915 28.6533 12.4311 27.8696 13.0005L21.801 17.4096C21.4505 17.6643 21.3039 18.1156 21.4377 18.5276L23.7557 25.6617C24.0551 26.583 23.0006 27.3491 22.2169 26.7797L16.1483 22.3706C15.7978 22.116 15.3232 22.116 14.9727 22.3706L8.90418 26.7797C8.12047 27.3491 7.06599 26.583 7.36534 25.6617L9.68332 18.5276C9.8172 18.1156 9.67054 17.6643 9.32005 17.4096L3.25148 13.0005C2.46777 12.4311 2.87055 11.1915 3.83927 11.1915H11.3404C11.7737 11.1915 12.1576 10.9126 12.2915 10.5005L14.6095 3.3665Z" fill="#FFB545"/>
<path d="M142.321 3.3665C142.62 2.44519 143.923 2.44519 144.223 3.3665L146.541 10.5005C146.675 10.9126 147.059 11.1915 147.492 11.1915H154.993C155.962 11.1915 156.364 12.4311 155.581 13.0005L149.512 17.4096C149.162 17.6643 149.015 18.1156 149.149 18.5276L151.467 25.6617C151.766 26.583 150.712 27.3491 149.928 26.7797L143.86 22.3706C143.509 22.116 143.034 22.116 142.684 22.3706L136.615 26.7797C135.832 27.3491 134.777 26.583 135.077 25.6617L137.395 18.5276C137.528 18.1156 137.382 17.6643 137.031 17.4096L130.963 13.0005C130.179 12.4311 130.582 11.1915 131.55 11.1915H139.052C139.485 11.1915 139.869 10.9126 140.003 10.5005L142.321 3.3665Z" fill="#FFB545"/>
</svg>
