<svg width="103" height="30" viewBox="0 0 103 30" fill="none" xmlns="http://www.w3.org/2000/svg">
<path d="M36.35 22.175C35.9333 22.175 35.6083 22.0583 35.375 21.825C35.1583 21.5917 35.05 21.2667 35.05 20.85V5.7C35.05 5.26667 35.1667 4.94167 35.4 4.725C35.6333 4.49167 35.9583 4.375 36.375 4.375H42.35C44.25 4.375 45.7167 4.85 46.75 5.8C47.7833 6.73333 48.3 8.05 48.3 9.75C48.3 11.4667 47.7833 12.8 46.75 13.75C45.7167 14.6833 44.25 15.15 42.35 15.15H37.65V20.85C37.65 21.2667 37.5417 21.5917 37.325 21.825C37.1083 22.0583 36.7833 22.175 36.35 22.175ZM37.65 13.075H41.975C43.225 13.075 44.1667 12.8 44.8 12.25C45.45 11.6833 45.775 10.85 45.775 9.75C45.775 8.66667 45.45 7.85 44.8 7.3C44.1667 6.73333 43.225 6.45 41.975 6.45H37.65V13.075ZM54.1047 22.225C53.2547 22.225 52.488 22.0583 51.8047 21.725C51.138 21.3917 50.613 20.9417 50.2297 20.375C49.8464 19.8083 49.6547 19.1667 49.6547 18.45C49.6547 17.55 49.8797 16.8417 50.3297 16.325C50.7964 15.7917 51.5547 15.4167 52.6047 15.2C53.6714 14.9667 55.1047 14.85 56.9047 14.85H58.0797V16.4H56.9297C55.7297 16.4 54.7797 16.4583 54.0797 16.575C53.3797 16.6917 52.8797 16.8917 52.5797 17.175C52.2964 17.4417 52.1547 17.8167 52.1547 18.3C52.1547 18.9333 52.3714 19.45 52.8047 19.85C53.238 20.2333 53.838 20.425 54.6047 20.425C55.2214 20.425 55.763 20.2833 56.2297 20C56.6964 19.7 57.063 19.3 57.3297 18.8C57.613 18.3 57.7547 17.725 57.7547 17.075V14.2C57.7547 13.25 57.5547 12.5667 57.1547 12.15C56.7547 11.7333 56.0964 11.525 55.1797 11.525C54.6464 11.525 54.088 11.5917 53.5047 11.725C52.938 11.8583 52.3464 12.0833 51.7297 12.4C51.4464 12.5333 51.2047 12.575 51.0047 12.525C50.8047 12.475 50.6464 12.3667 50.5297 12.2C50.413 12.0167 50.3464 11.825 50.3297 11.625C50.3297 11.4083 50.3797 11.2 50.4797 11C50.5964 10.8 50.788 10.65 51.0547 10.55C51.788 10.2 52.513 9.95 53.2297 9.8C53.9464 9.65 54.6214 9.575 55.2547 9.575C56.3714 9.575 57.288 9.75 58.0047 10.1C58.738 10.45 59.2797 10.9833 59.6297 11.7C59.9797 12.4167 60.1547 13.3417 60.1547 14.475V20.9C60.1547 21.3 60.0547 21.6167 59.8547 21.85C59.6547 22.0667 59.363 22.175 58.9797 22.175C58.613 22.175 58.3214 22.0667 58.1047 21.85C57.888 21.6167 57.7797 21.3 57.7797 20.9V19.275H58.0047C57.8714 19.8917 57.6214 20.425 57.2547 20.875C56.9047 21.3083 56.463 21.6417 55.9297 21.875C55.3964 22.1083 54.788 22.225 54.1047 22.225ZM69.1574 26.725C68.2574 26.725 67.3824 26.6333 66.5324 26.45C65.6991 26.2667 64.9408 25.9667 64.2574 25.55C64.0074 25.4167 63.8408 25.25 63.7574 25.05C63.6741 24.8667 63.6491 24.675 63.6824 24.475C63.7324 24.275 63.8241 24.1 63.9574 23.95C64.0908 23.8 64.2491 23.7 64.4324 23.65C64.6324 23.6 64.8408 23.6333 65.0574 23.75C65.7908 24.15 66.4824 24.4167 67.1324 24.55C67.7991 24.7 68.4158 24.775 68.9824 24.775C70.1491 24.775 71.0241 24.475 71.6074 23.875C72.1908 23.2917 72.4824 22.425 72.4824 21.275V18.725H72.7074C72.4574 19.6417 71.9324 20.3667 71.1324 20.9C70.3324 21.4333 69.4074 21.7 68.3574 21.7C67.2574 21.7 66.2991 21.45 65.4824 20.95C64.6658 20.4333 64.0324 19.725 63.5824 18.825C63.1324 17.9083 62.9074 16.8417 62.9074 15.625C62.9074 14.7083 63.0324 13.8833 63.2824 13.15C63.5491 12.4167 63.9158 11.7833 64.3824 11.25C64.8658 10.7167 65.4408 10.3083 66.1074 10.025C66.7908 9.725 67.5408 9.575 68.3574 9.575C69.4241 9.575 70.3491 9.84167 71.1324 10.375C71.9324 10.9083 72.4491 11.6333 72.6824 12.55L72.4324 12.975V10.9C72.4324 10.4833 72.5408 10.1667 72.7574 9.95C72.9908 9.73333 73.2991 9.625 73.6824 9.625C74.0824 9.625 74.3908 9.73333 74.6074 9.95C74.8241 10.1667 74.9324 10.4833 74.9324 10.9V20.975C74.9324 22.875 74.4408 24.3083 73.4574 25.275C72.4741 26.2417 71.0408 26.725 69.1574 26.725ZM68.9574 19.725C69.6908 19.725 70.3158 19.5583 70.8324 19.225C71.3491 18.8917 71.7491 18.4167 72.0324 17.8C72.3158 17.1833 72.4574 16.4583 72.4574 15.625C72.4574 14.375 72.1408 13.3833 71.5074 12.65C70.8908 11.9167 70.0408 11.55 68.9574 11.55C68.2408 11.55 67.6241 11.7167 67.1074 12.05C66.5908 12.3833 66.1824 12.8583 65.8824 13.475C65.5991 14.075 65.4574 14.7917 65.4574 15.625C65.4574 16.8917 65.7741 17.8917 66.4074 18.625C67.0408 19.3583 67.8908 19.725 68.9574 19.725ZM84.2012 22.225C82.8678 22.225 81.7178 21.975 80.7512 21.475C79.8012 20.9583 79.0595 20.2333 78.5262 19.3C78.0095 18.35 77.7512 17.225 77.7512 15.925C77.7512 14.6583 78.0095 13.55 78.5262 12.6C79.0428 11.65 79.7512 10.9083 80.6512 10.375C81.5512 9.84167 82.5762 9.575 83.7262 9.575C84.5762 9.575 85.3345 9.71667 86.0012 10C86.6678 10.2667 87.2345 10.6667 87.7012 11.2C88.1845 11.7167 88.5428 12.35 88.7762 13.1C89.0262 13.85 89.1512 14.6917 89.1512 15.625C89.1512 15.9083 89.0678 16.125 88.9012 16.275C88.7345 16.4083 88.4845 16.475 88.1512 16.475H79.7512V14.925H87.4512L87.0262 15.275C87.0262 14.4417 86.9012 13.7333 86.6512 13.15C86.4178 12.5667 86.0595 12.125 85.5762 11.825C85.1095 11.5083 84.5262 11.35 83.8262 11.35C83.0428 11.35 82.3762 11.5333 81.8262 11.9C81.2928 12.2667 80.8845 12.775 80.6012 13.425C80.3178 14.075 80.1762 14.8333 80.1762 15.7V15.85C80.1762 17.3167 80.5178 18.425 81.2012 19.175C81.9012 19.9083 82.9095 20.275 84.2262 20.275C84.7262 20.275 85.2512 20.2083 85.8012 20.075C86.3678 19.9417 86.9012 19.7167 87.4012 19.4C87.6845 19.2333 87.9345 19.1583 88.1512 19.175C88.3845 19.1917 88.5678 19.2667 88.7012 19.4C88.8512 19.5333 88.9428 19.7 88.9762 19.9C89.0095 20.1 88.9762 20.3083 88.8762 20.525C88.7762 20.725 88.6012 20.9083 88.3512 21.075C87.7845 21.4583 87.1262 21.75 86.3762 21.95C85.6262 22.1333 84.9012 22.225 84.2012 22.225ZM96.1789 22.225C95.4456 22.225 94.6872 22.1417 93.9039 21.975C93.1372 21.8083 92.4289 21.525 91.7789 21.125C91.5622 20.975 91.4122 20.8083 91.3289 20.625C91.2456 20.4417 91.2122 20.2583 91.2289 20.075C91.2622 19.875 91.3372 19.7083 91.4539 19.575C91.5872 19.425 91.7456 19.3333 91.9289 19.3C92.1289 19.2667 92.3372 19.3083 92.5539 19.425C93.2039 19.7917 93.8289 20.05 94.4289 20.2C95.0289 20.3333 95.6206 20.4 96.2039 20.4C97.0872 20.4 97.7539 20.2417 98.2039 19.925C98.6539 19.6083 98.8789 19.1833 98.8789 18.65C98.8789 18.2167 98.7289 17.8833 98.4289 17.65C98.1289 17.4 97.6789 17.2083 97.0789 17.075L94.7039 16.6C93.6706 16.3833 92.8872 16 92.3539 15.45C91.8206 14.9 91.5539 14.2 91.5539 13.35C91.5539 12.5833 91.7622 11.9167 92.1789 11.35C92.5956 10.7833 93.1789 10.35 93.9289 10.05C94.6789 9.73333 95.5456 9.575 96.5289 9.575C97.2622 9.575 97.9539 9.66667 98.6039 9.85C99.2539 10.0333 99.8539 10.3083 100.404 10.675C100.621 10.7917 100.762 10.95 100.829 11.15C100.896 11.3333 100.904 11.5167 100.854 11.7C100.821 11.8833 100.737 12.05 100.604 12.2C100.471 12.3333 100.304 12.4167 100.104 12.45C99.9206 12.4667 99.7122 12.4167 99.4789 12.3C98.9789 11.9833 98.4789 11.7583 97.9789 11.625C97.4956 11.4917 97.0122 11.425 96.5289 11.425C95.6456 11.425 94.9789 11.5917 94.5289 11.925C94.0956 12.2417 93.8789 12.675 93.8789 13.225C93.8789 13.6417 94.0122 13.9833 94.2789 14.25C94.5456 14.5167 94.9622 14.7083 95.5289 14.825L97.9039 15.3C98.9872 15.5167 99.8039 15.8833 100.354 16.4C100.921 16.9167 101.204 17.6167 101.204 18.5C101.204 19.65 100.746 20.5583 99.8289 21.225C98.9122 21.8917 97.6956 22.225 96.1789 22.225Z" fill="white"/>
<path d="M22.05 9H4.95C4.42533 9 4 9.41973 4 9.9375V23.0625C4 23.5803 4.42533 24 4.95 24H22.05C22.5747 24 23 23.5803 23 23.0625V9.9375C23 9.41973 22.5747 9 22.05 9Z" stroke="white" stroke-width="1.5" stroke-linecap="round" stroke-linejoin="round"/>
<path d="M8 9V6.9375C8 6.68886 8.09482 6.4504 8.2636 6.27459C8.43239 6.09877 8.66131 6 8.9 6H25.1C25.3387 6 25.5676 6.09877 25.7364 6.27459C25.9052 6.4504 26 6.68886 26 6.9375V20.0625C26 20.3111 25.9052 20.5496 25.7364 20.7254C25.5676 20.9012 25.3387 21 25.1 21H23" stroke="white" stroke-width="1.5" stroke-linecap="round" stroke-linejoin="round"/>
<path d="M4 13H23" stroke="white" stroke-width="1.5" stroke-linecap="round" stroke-linejoin="round"/>
</svg>
