<svg width="19" height="20" viewBox="0 0 19 20" fill="none" xmlns="http://www.w3.org/2000/svg">
<circle cx="9.5" cy="10" r="9.5" fill="#00ACFF"/>
<path fill-rule="evenodd" clip-rule="evenodd" d="M8.11371 7.36896C7.94898 7.27482 7.74659 7.2755 7.58248 7.37073C7.41838 7.46596 7.31738 7.64135 7.31738 7.83108V12.0891C7.31738 12.2789 7.41838 12.4543 7.58248 12.5495C7.74659 12.6447 7.94898 12.6454 8.11371 12.5512L11.8395 10.4222C12.0053 10.3275 12.1077 10.1511 12.1077 9.9601C12.1077 9.76908 12.0053 9.59274 11.8395 9.498L8.11371 7.36896ZM10.5026 9.9601L8.38189 11.1719V8.74825L10.5026 9.9601Z" fill="white"/>
<path fill-rule="evenodd" clip-rule="evenodd" d="M3.05908 9.96022C3.05908 7.9644 3.05908 6.9665 3.56734 6.26694C3.73149 6.04101 3.93017 5.84233 4.1561 5.67818C4.85566 5.16992 5.85356 5.16992 7.84938 5.16992H11.0429C13.0387 5.16992 14.0366 5.16992 14.7362 5.67818C14.9621 5.84233 15.1608 6.04101 15.325 6.26694C15.8332 6.9665 15.8332 7.9644 15.8332 9.96022C15.8332 11.956 15.8332 12.9539 15.325 13.6535C15.1608 13.8794 14.9621 14.0781 14.7362 14.2423C14.0366 14.7505 13.0387 14.7505 11.0429 14.7505H7.84938C5.85356 14.7505 4.85566 14.7505 4.1561 14.2423C3.93017 14.0781 3.73149 13.8794 3.56734 13.6535C3.05908 12.9539 3.05908 11.956 3.05908 9.96022ZM7.84938 6.23443H11.0429C12.0645 6.23443 12.7452 6.2359 13.261 6.29177C13.7568 6.34549 13.9724 6.43907 14.1105 6.53939C14.246 6.63788 14.3652 6.75709 14.4638 6.89264C14.564 7.03071 14.6576 7.24632 14.7114 7.74215C14.7673 8.25789 14.7687 8.93861 14.7687 9.96022C14.7687 10.9818 14.7673 11.6625 14.7114 12.1783C14.6576 12.6741 14.564 12.8897 14.4638 13.0278C14.3652 13.1633 14.246 13.2826 14.1105 13.3811C13.9724 13.4814 13.7568 13.5749 13.261 13.6287C12.7452 13.6846 12.0645 13.686 11.0429 13.686H7.84938C6.82776 13.686 6.14705 13.6846 5.63131 13.6287C5.13548 13.5749 4.91987 13.4814 4.7818 13.3811C4.64625 13.2826 4.52704 13.1633 4.42855 13.0278C4.32823 12.8897 4.23465 12.6741 4.18093 12.1783C4.12506 11.6625 4.12359 10.9818 4.12359 9.96022C4.12359 8.93861 4.12506 8.25789 4.18093 7.74215C4.23465 7.24632 4.32823 7.03071 4.42855 6.89264C4.52704 6.75709 4.64625 6.63788 4.7818 6.53939C4.91987 6.43907 5.13548 6.34549 5.63131 6.29177C6.14705 6.2359 6.82776 6.23443 7.84938 6.23443Z" fill="white"/>
</svg>
